<svg width="145" height="59" viewBox="0 0 145 59" fill="none" xmlns="http://www.w3.org/2000/svg">
<g filter="url(#filter0_d_170_1482)">
<rect x="4" width="137" height="51" rx="10" fill="#29ABE2" shape-rendering="crispEdges"/>
<path d="M17.9599 33H14.4996L19.772 17.7273H23.9332L29.1982 33H25.7379L21.9123 21.2173H21.793L17.9599 33ZM17.7436 26.9968H25.9169V29.5174H17.7436V26.9968ZM34.6644 33.1864C33.7944 33.1864 33.0064 32.9627 32.3004 32.5153C31.5994 32.0629 31.0426 31.3991 30.63 30.5241C30.2223 29.6442 30.0185 28.5653 30.0185 27.2876C30.0185 25.9751 30.2298 24.8839 30.6523 24.0138C31.0749 23.1388 31.6367 22.4851 32.3377 22.0526C33.0437 21.6151 33.8168 21.3963 34.657 21.3963C35.2983 21.3963 35.8327 21.5057 36.2603 21.7244C36.6928 21.9382 37.0408 22.2067 37.3043 22.5298C37.5728 22.848 37.7766 23.1612 37.9158 23.4695H38.0128V17.7273H41.1822V33H38.0501V31.1655H37.9158C37.7667 31.4837 37.5554 31.7994 37.282 32.1126C37.0135 32.4208 36.663 32.6768 36.2305 32.8807C35.8029 33.0845 35.2809 33.1864 34.6644 33.1864ZM35.6712 30.6584C36.1832 30.6584 36.6158 30.5192 36.9688 30.2408C37.3267 29.9574 37.6001 29.5621 37.7891 29.055C37.983 28.5479 38.0799 27.9538 38.0799 27.2727C38.0799 26.5916 37.9854 26 37.7965 25.4979C37.6076 24.9957 37.3342 24.608 36.9762 24.3345C36.6183 24.0611 36.1832 23.9244 35.6712 23.9244C35.1491 23.9244 34.7092 24.0661 34.3512 24.3494C33.9933 24.6328 33.7223 25.0256 33.5384 25.5277C33.3544 26.0298 33.2624 26.6115 33.2624 27.2727C33.2624 27.9389 33.3544 28.5281 33.5384 29.0401C33.7273 29.5472 33.9982 29.945 34.3512 30.2333C34.7092 30.5167 35.1491 30.6584 35.6712 30.6584ZM48.015 33.1864C47.145 33.1864 46.357 32.9627 45.651 32.5153C44.95 32.0629 44.3932 31.3991 43.9806 30.5241C43.5729 29.6442 43.3691 28.5653 43.3691 27.2876C43.3691 25.9751 43.5803 24.8839 44.0029 24.0138C44.4255 23.1388 44.9873 22.4851 45.6883 22.0526C46.3943 21.6151 47.1673 21.3963 48.0075 21.3963C48.6489 21.3963 49.1833 21.5057 49.6109 21.7244C50.0434 21.9382 50.3914 22.2067 50.6549 22.5298C50.9234 22.848 51.1272 23.1612 51.2664 23.4695H51.3634V17.7273H54.5328V33H51.4007V31.1655H51.2664C51.1173 31.4837 50.906 31.7994 50.6325 32.1126C50.3641 32.4208 50.0136 32.6768 49.5811 32.8807C49.1535 33.0845 48.6315 33.1864 48.015 33.1864ZM49.0218 30.6584C49.5338 30.6584 49.9664 30.5192 50.3193 30.2408C50.6773 29.9574 50.9507 29.5621 51.1396 29.055C51.3335 28.5479 51.4305 27.9538 51.4305 27.2727C51.4305 26.5916 51.336 26 51.1471 25.4979C50.9582 24.9957 50.6847 24.608 50.3268 24.3345C49.9688 24.0611 49.5338 23.9244 49.0218 23.9244C48.4997 23.9244 48.0597 24.0661 47.7018 24.3494C47.3438 24.6328 47.0729 25.0256 46.8889 25.5277C46.705 26.0298 46.613 26.6115 46.613 27.2727C46.613 27.9389 46.705 28.5281 46.8889 29.0401C47.0779 29.5472 47.3488 29.945 47.7018 30.2333C48.0597 30.5167 48.4997 30.6584 49.0218 30.6584ZM68.0977 21.5455V23.9318H61.1997V21.5455H68.0977ZM62.7657 18.8011H65.9426V29.4801C65.9426 29.7734 65.9873 30.0021 66.0768 30.1662C66.1663 30.3253 66.2906 30.4371 66.4497 30.5018C66.6137 30.5664 66.8026 30.5987 67.0164 30.5987C67.1656 30.5987 67.3147 30.5863 67.4639 30.5614C67.613 30.5316 67.7274 30.5092 67.8069 30.4943L68.3066 32.8583C68.1475 32.908 67.9237 32.9652 67.6354 33.0298C67.347 33.0994 66.9965 33.1417 66.5839 33.1566C65.8183 33.1864 65.1471 33.0845 64.5704 32.8509C63.9987 32.6172 63.5537 32.2543 63.2355 31.7621C62.9173 31.2699 62.7607 30.6484 62.7657 29.8977V18.8011ZM73.4335 33.2163C72.7027 33.2163 72.0514 33.0895 71.4797 32.8359C70.9079 32.5774 70.4555 32.1971 70.1224 31.695C69.7943 31.1879 69.6302 30.5565 69.6302 29.8008C69.6302 29.1644 69.7471 28.63 69.9807 28.1974C70.2144 27.7649 70.5326 27.4169 70.9353 27.1534C71.338 26.8899 71.7954 26.6911 72.3074 26.5568C72.8245 26.4226 73.3664 26.3281 73.9332 26.2734C74.5993 26.2038 75.1363 26.1392 75.5439 26.0795C75.9516 26.0149 76.2474 25.9205 76.4314 25.7962C76.6153 25.6719 76.7073 25.4879 76.7073 25.2443V25.1996C76.7073 24.7273 76.5582 24.3619 76.2599 24.1033C75.9665 23.8448 75.5489 23.7156 75.007 23.7156C74.4353 23.7156 73.9804 23.8423 73.6423 24.0959C73.3042 24.3445 73.0805 24.6577 72.9711 25.0355L70.0329 24.7969C70.1821 24.1009 70.4754 23.4993 70.9129 22.9922C71.3504 22.4801 71.9147 22.0874 72.6057 21.8139C73.3018 21.5355 74.1072 21.3963 75.0219 21.3963C75.6583 21.3963 76.2673 21.4709 76.849 21.62C77.4356 21.7692 77.9552 22.0004 78.4076 22.3136C78.865 22.6268 79.2254 23.0295 79.4889 23.5217C79.7524 24.0089 79.8841 24.593 79.8841 25.2741V33H76.8714V31.4116H76.7819C76.5979 31.7695 76.3518 32.0852 76.0436 32.3587C75.7354 32.6271 75.365 32.8384 74.9324 32.9925C74.4999 33.1417 74.0003 33.2163 73.4335 33.2163ZM74.3433 31.0238C74.8106 31.0238 75.2233 30.9318 75.5812 30.7479C75.9392 30.5589 76.2201 30.3054 76.4239 29.9872C76.6278 29.669 76.7297 29.3086 76.7297 28.9059V27.6903C76.6302 27.755 76.4935 27.8146 76.3195 27.8693C76.1505 27.919 75.9591 27.9663 75.7453 28.011C75.5315 28.0508 75.3177 28.0881 75.104 28.1229C74.8902 28.1527 74.6963 28.18 74.5223 28.2049C74.1494 28.2596 73.8238 28.3466 73.5454 28.4659C73.267 28.5852 73.0507 28.7468 72.8966 28.9506C72.7425 29.1495 72.6654 29.3981 72.6654 29.6964C72.6654 30.1289 72.822 30.4595 73.1352 30.6882C73.4534 30.9119 73.8561 31.0238 74.3433 31.0238ZM91.8794 24.8118L88.971 24.9908C88.9213 24.7422 88.8144 24.5185 88.6503 24.3196C88.4862 24.1158 88.27 23.9542 88.0015 23.8349C87.738 23.7106 87.4223 23.6484 87.0544 23.6484C86.5622 23.6484 86.1471 23.7528 85.809 23.9616C85.471 24.1655 85.3019 24.4389 85.3019 24.782C85.3019 25.0554 85.4113 25.2866 85.6301 25.4755C85.8488 25.6644 86.2242 25.8161 86.7561 25.9304L88.8293 26.348C89.9429 26.5767 90.7732 26.9446 91.32 27.4517C91.8669 27.9588 92.1404 28.625 92.1404 29.4503C92.1404 30.201 91.9191 30.8597 91.4767 31.4265C91.0392 31.9933 90.4376 32.4357 89.672 32.7539C88.9113 33.0671 88.0338 33.2237 87.0395 33.2237C85.5232 33.2237 84.3151 32.908 83.4152 32.2766C82.5203 31.6403 81.9958 30.7752 81.8417 29.6815L84.9664 29.5174C85.0608 29.9798 85.2895 30.3327 85.6524 30.5763C86.0154 30.815 86.4802 30.9343 87.047 30.9343C87.6038 30.9343 88.0512 30.8274 88.3893 30.6136C88.7323 30.3949 88.9063 30.114 88.9113 29.771C88.9063 29.4826 88.7845 29.2464 88.5459 29.0625C88.3073 28.8736 87.9394 28.7294 87.4422 28.63L85.4585 28.2347C84.3399 28.011 83.5072 27.6232 82.9603 27.0714C82.4184 26.5195 82.1475 25.8161 82.1475 24.9609C82.1475 24.2251 82.3463 23.5913 82.7441 23.0593C83.1468 22.5273 83.711 22.1172 84.4369 21.8288C85.1677 21.5405 86.0228 21.3963 87.0022 21.3963C88.449 21.3963 89.5874 21.7021 90.4177 22.3136C91.2529 22.9251 91.7401 23.7578 91.8794 24.8118ZM97.0194 29.7038L97.0268 25.8931H97.4892L101.158 21.5455H104.805L99.8755 27.3026H99.1223L97.0194 29.7038ZM94.1408 33V17.7273H97.3176V33H94.1408ZM101.3 33L97.9292 28.011L100.047 25.7663L105.021 33H101.3Z" fill="white"/>
<path d="M123.5 18V33" stroke="white" stroke-width="2" stroke-linecap="round"/>
<path d="M131 25.6416L116 25.6416" stroke="white" stroke-width="2" stroke-linecap="round"/>
</g>
<defs>
<filter id="filter0_d_170_1482" x="0" y="0" width="145" height="59" filterUnits="userSpaceOnUse" color-interpolation-filters="sRGB">
<feFlood flood-opacity="0" result="BackgroundImageFix"/>
<feColorMatrix in="SourceAlpha" type="matrix" values="0 0 0 0 0 0 0 0 0 0 0 0 0 0 0 0 0 0 127 0" result="hardAlpha"/>
<feOffset dy="4"/>
<feGaussianBlur stdDeviation="2"/>
<feComposite in2="hardAlpha" operator="out"/>
<feColorMatrix type="matrix" values="0 0 0 0 0 0 0 0 0 0 0 0 0 0 0 0 0 0 0.25 0"/>
<feBlend mode="normal" in2="BackgroundImageFix" result="effect1_dropShadow_170_1482"/>
<feBlend mode="normal" in="SourceGraphic" in2="effect1_dropShadow_170_1482" result="shape"/>
</filter>
</defs>
</svg>
