<svg width="24" height="24" viewBox="0 0 24 24" fill="none" xmlns="http://www.w3.org/2000/svg">
<path d="M17.8333 2.50008H22.3334C22.6428 2.50008 22.9396 2.623 23.1584 2.84179C23.3772 3.06058 23.5001 3.35733 23.5001 3.66675V22.3334C23.5001 22.6428 23.3772 22.9396 23.1584 23.1584C22.9396 23.3772 22.6428 23.5001 22.3334 23.5001H1.66661C1.35719 23.5001 1.06044 23.3772 0.841648 23.1584C0.622855 22.9396 0.499939 22.6428 0.499939 22.3334V3.66675C0.499939 3.35733 0.622855 3.06058 0.841648 2.84179C1.06044 2.623 1.35719 2.50008 1.66661 2.50008H6.16668V1.16675C6.16668 0.614463 6.61439 0.166748 7.16668 0.166748H7.50001C8.0523 0.166748 8.50001 0.614463 8.50001 1.16675V2.50008H15.5V1.16675C15.5 0.614463 15.9477 0.166748 16.5 0.166748H16.8333C17.3856 0.166748 17.8333 0.614463 17.8333 1.16675V2.50008ZM2.50009 9.00008V21.5001H21.5001V9.00008H2.50009ZM4.99999 15.1667C5 14.6144 5.44771 14.1667 5.99999 14.1667H9.83334C10.3856 14.1667 10.8333 14.6145 10.8333 15.1667V16.5001C10.8333 17.0524 10.3856 17.5001 9.83335 17.5001H5.99996C5.44767 17.5001 4.99995 17.0524 4.99996 16.5001L4.99999 15.1667Z" fill="black"/>
</svg>
