<svg width="144" height="69" viewBox="0 0 144 69" fill="none" xmlns="http://www.w3.org/2000/svg">
<g filter="url(#filter0_d_70_797)">
<path d="M34.6392 27.5H32.7898C32.6804 26.968 32.489 26.5007 32.2156 26.098C31.9471 25.6953 31.619 25.3572 31.2312 25.0838C30.8484 24.8054 30.4233 24.5966 29.956 24.4574C29.4886 24.3182 29.0014 24.2486 28.4943 24.2486C27.5696 24.2486 26.7319 24.4822 25.9812 24.9496C25.2354 25.4169 24.6413 26.1055 24.1989 27.0153C23.7614 27.9251 23.5426 29.0412 23.5426 30.3636C23.5426 31.6861 23.7614 32.8022 24.1989 33.712C24.6413 34.6218 25.2354 35.3104 25.9812 35.7777C26.7319 36.245 27.5696 36.4787 28.4943 36.4787C29.0014 36.4787 29.4886 36.4091 29.956 36.2699C30.4233 36.1307 30.8484 35.9244 31.2312 35.6509C31.619 35.3725 31.9471 35.032 32.2156 34.6293C32.489 34.2216 32.6804 33.7543 32.7898 33.2273H34.6392C34.5 34.0078 34.2464 34.7063 33.8786 35.3228C33.5107 35.9393 33.0533 36.4638 32.5064 36.8963C31.9595 37.3239 31.3455 37.6495 30.6644 37.8732C29.9883 38.0969 29.2649 38.2088 28.4943 38.2088C27.1918 38.2088 26.0334 37.8906 25.0192 37.2543C24.005 36.6179 23.207 35.7131 22.6254 34.5398C22.0437 33.3665 21.7528 31.9744 21.7528 30.3636C21.7528 28.7528 22.0437 27.3608 22.6254 26.1875C23.207 25.0142 24.005 24.1094 25.0192 23.473C26.0334 22.8366 27.1918 22.5185 28.4943 22.5185C29.2649 22.5185 29.9883 22.6303 30.6644 22.854C31.3455 23.0778 31.9595 23.4059 32.5064 23.8384C33.0533 24.266 33.5107 24.788 33.8786 25.4045C34.2464 26.016 34.5 26.7145 34.6392 27.5ZM40.7599 38.2685C40.034 38.2685 39.3753 38.1317 38.7836 37.8583C38.192 37.5799 37.7222 37.1797 37.3742 36.6577C37.0262 36.1307 36.8522 35.4943 36.8522 34.7486C36.8522 34.0923 36.9814 33.5604 37.24 33.1527C37.4985 32.7401 37.844 32.4169 38.2765 32.1832C38.7091 31.9496 39.1863 31.7756 39.7084 31.6612C40.2354 31.5419 40.7648 31.4474 41.2968 31.3778C41.9928 31.2884 42.5571 31.2212 42.9896 31.1765C43.4271 31.1268 43.7453 31.0447 43.9442 30.9304C44.148 30.8161 44.2499 30.6172 44.2499 30.3338V30.2741C44.2499 29.5384 44.0486 28.9666 43.6459 28.5589C43.2481 28.1513 42.6441 27.9474 41.8337 27.9474C40.9935 27.9474 40.3348 28.1314 39.8575 28.4993C39.3802 28.8672 39.0447 29.2599 38.8508 29.6776L37.1803 29.081C37.4786 28.3849 37.8763 27.843 38.3735 27.4553C38.8756 27.0625 39.4225 26.7891 40.0141 26.6349C40.6107 26.4759 41.1974 26.3963 41.7741 26.3963C42.142 26.3963 42.5645 26.4411 43.0418 26.5305C43.5241 26.6151 43.9889 26.7915 44.4363 27.06C44.8888 27.3285 45.2641 27.7337 45.5624 28.2756C45.8607 28.8175 46.0099 29.5433 46.0099 30.4531V38H44.2499V36.4489H44.1604C44.0411 36.6974 43.8422 36.9634 43.5638 37.2468C43.2854 37.5302 42.915 37.7713 42.4527 37.9702C41.9903 38.169 41.426 38.2685 40.7599 38.2685ZM41.0283 36.6875C41.7243 36.6875 42.311 36.5508 42.7883 36.2773C43.2705 36.0039 43.6334 35.6509 43.877 35.2184C44.1256 34.7859 44.2499 34.331 44.2499 33.8537V32.2429C44.1753 32.3324 44.0113 32.4144 43.7577 32.489C43.5091 32.5586 43.2208 32.6207 42.8927 32.6754C42.5695 32.7251 42.2538 32.7699 41.9456 32.8097C41.6423 32.8445 41.3962 32.8743 41.2073 32.8991C40.7499 32.9588 40.3224 33.0558 39.9246 33.19C39.5319 33.3192 39.2137 33.5156 38.9701 33.7791C38.7314 34.0376 38.6121 34.3906 38.6121 34.8381C38.6121 35.4496 38.8383 35.9119 39.2907 36.2251C39.7481 36.5334 40.3273 36.6875 41.0283 36.6875ZM50.9821 31.1094V38H49.2221V26.5455H50.9224V28.3352H51.0716C51.34 27.7536 51.7477 27.2862 52.2946 26.9332C52.8414 26.5753 53.5474 26.3963 54.4125 26.3963C55.188 26.3963 55.8667 26.5554 56.4483 26.8736C57.03 27.1868 57.4824 27.6641 57.8056 28.3054C58.1287 28.9418 58.2903 29.7472 58.2903 30.7216V38H56.5304V30.8409C56.5304 29.9411 56.2967 29.2401 55.8294 28.7379C55.362 28.2308 54.7207 27.9773 53.9054 27.9773C53.3436 27.9773 52.8414 28.0991 52.399 28.3427C51.9615 28.5863 51.6159 28.9418 51.3624 29.4091C51.1088 29.8764 50.9821 30.4432 50.9821 31.1094ZM66.1597 38.2386C65.0858 38.2386 64.1611 37.9851 63.3856 37.478C62.61 36.9709 62.0134 36.2724 61.5958 35.3825C61.1782 34.4925 60.9694 33.4759 60.9694 32.3324C60.9694 31.169 61.1831 30.1424 61.6107 29.2525C62.0432 28.3576 62.6448 27.6591 63.4154 27.157C64.191 26.6499 65.0958 26.3963 66.1299 26.3963C66.9353 26.3963 67.6611 26.5455 68.3074 26.8438C68.9537 27.142 69.4832 27.5597 69.8959 28.0966C70.3085 28.6335 70.5645 29.2599 70.664 29.9759H68.904C68.7698 29.4538 68.4715 28.9915 68.0091 28.5888C67.5518 28.1811 66.9353 27.9773 66.1597 27.9773C65.4736 27.9773 64.8721 28.1562 64.355 28.5142C63.843 28.8672 63.4427 29.3668 63.1544 30.0131C62.871 30.6545 62.7293 31.4077 62.7293 32.2727C62.7293 33.1577 62.8685 33.9283 63.1469 34.5845C63.4303 35.2408 63.828 35.7504 64.3401 36.1133C64.8572 36.4762 65.4637 36.6577 66.1597 36.6577C66.6171 36.6577 67.0322 36.5781 67.4051 36.419C67.778 36.2599 68.0937 36.0312 68.3522 35.733C68.6107 35.4347 68.7947 35.0767 68.904 34.6591H70.664C70.5645 35.3352 70.3184 35.9442 69.9257 36.4862C69.5379 37.0231 69.0233 37.4506 68.382 37.7688C67.7457 38.082 67.0049 38.2386 66.1597 38.2386ZM78.0393 38.2386C76.9356 38.2386 75.9836 37.995 75.1831 37.5078C74.3877 37.0156 73.7737 36.3295 73.3412 35.4496C72.9136 34.5646 72.6998 33.5355 72.6998 32.3622C72.6998 31.1889 72.9136 30.1548 73.3412 29.2599C73.7737 28.3601 74.3753 27.6591 75.1459 27.157C75.9214 26.6499 76.8263 26.3963 77.8604 26.3963C78.4569 26.3963 79.0461 26.4957 79.6278 26.6946C80.2094 26.8935 80.7389 27.2166 81.2162 27.6641C81.6934 28.1065 82.0738 28.6932 82.3572 29.424C82.6405 30.1548 82.7822 31.0547 82.7822 32.1236V32.8693H73.9527V31.348H80.9925C80.9925 30.7017 80.8632 30.125 80.6047 29.6179C80.3511 29.1108 79.9882 28.7106 79.5159 28.4173C79.0486 28.1239 78.4967 27.9773 77.8604 27.9773C77.1594 27.9773 76.5528 28.1513 76.0407 28.4993C75.5336 28.8423 75.1434 29.2898 74.8699 29.8416C74.5965 30.3935 74.4598 30.9851 74.4598 31.6165V32.6307C74.4598 33.4957 74.6089 34.229 74.9072 34.8306C75.2105 35.4272 75.6306 35.8821 76.1675 36.1953C76.7045 36.5036 77.3284 36.6577 78.0393 36.6577C78.5017 36.6577 78.9193 36.593 79.2922 36.4638C79.67 36.3295 79.9957 36.1307 80.2691 35.8672C80.5425 35.5987 80.7538 35.2656 80.903 34.8679L82.6033 35.3452C82.4243 35.9219 82.1235 36.429 81.7009 36.8665C81.2783 37.299 80.7563 37.6371 80.1349 37.8807C79.5134 38.1193 78.8149 38.2386 78.0393 38.2386ZM87.2194 22.7273V38H85.4594V22.7273H87.2194Z" fill="#29ABE2"/>
<path d="M111.501 30.5001L116.744 35.7431M106.258 35.7431L111.501 30.5001L106.258 35.7431ZM116.744 25.2571L111.5 30.5001L116.744 25.2571ZM111.5 30.5001L106.258 25.2571L111.5 30.5001Z" stroke="#29ABE2" stroke-width="2" stroke-linecap="round" stroke-linejoin="round"/>
<rect x="5" y="1" width="134" height="59" rx="9" stroke="#29ABE2" stroke-width="2" shape-rendering="crispEdges"/>
</g>
<defs>
<filter id="filter0_d_70_797" x="0" y="0" width="144" height="69" filterUnits="userSpaceOnUse" color-interpolation-filters="sRGB">
<feFlood flood-opacity="0" result="BackgroundImageFix"/>
<feColorMatrix in="SourceAlpha" type="matrix" values="0 0 0 0 0 0 0 0 0 0 0 0 0 0 0 0 0 0 127 0" result="hardAlpha"/>
<feOffset dy="4"/>
<feGaussianBlur stdDeviation="2"/>
<feComposite in2="hardAlpha" operator="out"/>
<feColorMatrix type="matrix" values="0 0 0 0 0 0 0 0 0 0 0 0 0 0 0 0 0 0 0.25 0"/>
<feBlend mode="normal" in2="BackgroundImageFix" result="effect1_dropShadow_70_797"/>
<feBlend mode="normal" in="SourceGraphic" in2="effect1_dropShadow_70_797" result="shape"/>
</filter>
</defs>
</svg>
