<svg width="136" height="61" viewBox="0 0 136 61" fill="none" xmlns="http://www.w3.org/2000/svg">
<path d="M30.6392 27.5H28.7898C28.6804 26.968 28.489 26.5007 28.2156 26.098C27.9471 25.6953 27.619 25.3572 27.2312 25.0838C26.8484 24.8054 26.4233 24.5966 25.956 24.4574C25.4886 24.3182 25.0014 24.2486 24.4943 24.2486C23.5696 24.2486 22.7319 24.4822 21.9812 24.9496C21.2354 25.4169 20.6413 26.1055 20.1989 27.0153C19.7614 27.9251 19.5426 29.0412 19.5426 30.3636C19.5426 31.6861 19.7614 32.8022 20.1989 33.712C20.6413 34.6218 21.2354 35.3104 21.9812 35.7777C22.7319 36.245 23.5696 36.4787 24.4943 36.4787C25.0014 36.4787 25.4886 36.4091 25.956 36.2699C26.4233 36.1307 26.8484 35.9244 27.2312 35.6509C27.619 35.3725 27.9471 35.032 28.2156 34.6293C28.489 34.2216 28.6804 33.7543 28.7898 33.2273H30.6392C30.5 34.0078 30.2464 34.7063 29.8786 35.3228C29.5107 35.9393 29.0533 36.4638 28.5064 36.8963C27.9595 37.3239 27.3455 37.6495 26.6644 37.8732C25.9883 38.0969 25.2649 38.2088 24.4943 38.2088C23.1918 38.2088 22.0334 37.8906 21.0192 37.2543C20.005 36.6179 19.207 35.7131 18.6254 34.5398C18.0437 33.3665 17.7528 31.9744 17.7528 30.3636C17.7528 28.7528 18.0437 27.3608 18.6254 26.1875C19.207 25.0142 20.005 24.1094 21.0192 23.473C22.0334 22.8366 23.1918 22.5185 24.4943 22.5185C25.2649 22.5185 25.9883 22.6303 26.6644 22.854C27.3455 23.0778 27.9595 23.4059 28.5064 23.8384C29.0533 24.266 29.5107 24.788 29.8786 25.4045C30.2464 26.016 30.5 26.7145 30.6392 27.5ZM36.7599 38.2685C36.034 38.2685 35.3753 38.1317 34.7836 37.8583C34.192 37.5799 33.7222 37.1797 33.3742 36.6577C33.0262 36.1307 32.8522 35.4943 32.8522 34.7486C32.8522 34.0923 32.9814 33.5604 33.24 33.1527C33.4985 32.7401 33.844 32.4169 34.2765 32.1832C34.7091 31.9496 35.1863 31.7756 35.7084 31.6612C36.2354 31.5419 36.7648 31.4474 37.2968 31.3778C37.9928 31.2884 38.5571 31.2212 38.9896 31.1765C39.4271 31.1268 39.7453 31.0447 39.9442 30.9304C40.148 30.8161 40.2499 30.6172 40.2499 30.3338V30.2741C40.2499 29.5384 40.0486 28.9666 39.6459 28.5589C39.2481 28.1513 38.6441 27.9474 37.8337 27.9474C36.9935 27.9474 36.3348 28.1314 35.8575 28.4993C35.3802 28.8672 35.0447 29.2599 34.8508 29.6776L33.1803 29.081C33.4786 28.3849 33.8763 27.843 34.3735 27.4553C34.8756 27.0625 35.4225 26.7891 36.0141 26.6349C36.6107 26.4759 37.1974 26.3963 37.7741 26.3963C38.142 26.3963 38.5645 26.4411 39.0418 26.5305C39.5241 26.6151 39.9889 26.7915 40.4363 27.06C40.8888 27.3285 41.2641 27.7337 41.5624 28.2756C41.8607 28.8175 42.0099 29.5433 42.0099 30.4531V38H40.2499V36.4489H40.1604C40.0411 36.6974 39.8422 36.9634 39.5638 37.2468C39.2854 37.5302 38.915 37.7713 38.4527 37.9702C37.9903 38.169 37.426 38.2685 36.7599 38.2685ZM37.0283 36.6875C37.7243 36.6875 38.311 36.5508 38.7883 36.2773C39.2705 36.0039 39.6334 35.6509 39.877 35.2184C40.1256 34.7859 40.2499 34.331 40.2499 33.8537V32.2429C40.1753 32.3324 40.0113 32.4144 39.7577 32.489C39.5091 32.5586 39.2208 32.6207 38.8927 32.6754C38.5695 32.7251 38.2538 32.7699 37.9456 32.8097C37.6423 32.8445 37.3962 32.8743 37.2073 32.8991C36.7499 32.9588 36.3224 33.0558 35.9246 33.19C35.5319 33.3192 35.2137 33.5156 34.9701 33.7791C34.7314 34.0376 34.6121 34.3906 34.6121 34.8381C34.6121 35.4496 34.8383 35.9119 35.2907 36.2251C35.7481 36.5334 36.3273 36.6875 37.0283 36.6875ZM46.9821 31.1094V38H45.2221V26.5455H46.9224V28.3352H47.0716C47.34 27.7536 47.7477 27.2862 48.2946 26.9332C48.8414 26.5753 49.5474 26.3963 50.4125 26.3963C51.188 26.3963 51.8667 26.5554 52.4483 26.8736C53.03 27.1868 53.4824 27.6641 53.8056 28.3054C54.1287 28.9418 54.2903 29.7472 54.2903 30.7216V38H52.5304V30.8409C52.5304 29.9411 52.2967 29.2401 51.8294 28.7379C51.362 28.2308 50.7207 27.9773 49.9054 27.9773C49.3436 27.9773 48.8414 28.0991 48.399 28.3427C47.9615 28.5863 47.6159 28.9418 47.3624 29.4091C47.1088 29.8764 46.9821 30.4432 46.9821 31.1094ZM62.1597 38.2386C61.0858 38.2386 60.1611 37.9851 59.3856 37.478C58.61 36.9709 58.0134 36.2724 57.5958 35.3825C57.1782 34.4925 56.9694 33.4759 56.9694 32.3324C56.9694 31.169 57.1831 30.1424 57.6107 29.2525C58.0432 28.3576 58.6448 27.6591 59.4154 27.157C60.191 26.6499 61.0958 26.3963 62.1299 26.3963C62.9353 26.3963 63.6611 26.5455 64.3074 26.8438C64.9537 27.142 65.4832 27.5597 65.8959 28.0966C66.3085 28.6335 66.5645 29.2599 66.664 29.9759H64.904C64.7698 29.4538 64.4715 28.9915 64.0091 28.5888C63.5518 28.1811 62.9353 27.9773 62.1597 27.9773C61.4736 27.9773 60.8721 28.1562 60.355 28.5142C59.843 28.8672 59.4427 29.3668 59.1544 30.0131C58.871 30.6545 58.7293 31.4077 58.7293 32.2727C58.7293 33.1577 58.8685 33.9283 59.1469 34.5845C59.4303 35.2408 59.828 35.7504 60.3401 36.1133C60.8572 36.4762 61.4637 36.6577 62.1597 36.6577C62.6171 36.6577 63.0322 36.5781 63.4051 36.419C63.778 36.2599 64.0937 36.0312 64.3522 35.733C64.6107 35.4347 64.7947 35.0767 64.904 34.6591H66.664C66.5645 35.3352 66.3184 35.9442 65.9257 36.4862C65.5379 37.0231 65.0233 37.4506 64.382 37.7688C63.7457 38.082 63.0049 38.2386 62.1597 38.2386ZM74.0393 38.2386C72.9356 38.2386 71.9836 37.995 71.1831 37.5078C70.3877 37.0156 69.7737 36.3295 69.3412 35.4496C68.9136 34.5646 68.6998 33.5355 68.6998 32.3622C68.6998 31.1889 68.9136 30.1548 69.3412 29.2599C69.7737 28.3601 70.3753 27.6591 71.1459 27.157C71.9214 26.6499 72.8263 26.3963 73.8604 26.3963C74.4569 26.3963 75.0461 26.4957 75.6278 26.6946C76.2094 26.8935 76.7389 27.2166 77.2162 27.6641C77.6934 28.1065 78.0738 28.6932 78.3572 29.424C78.6405 30.1548 78.7822 31.0547 78.7822 32.1236V32.8693H69.9527V31.348H76.9925C76.9925 30.7017 76.8632 30.125 76.6047 29.6179C76.3511 29.1108 75.9882 28.7106 75.5159 28.4173C75.0486 28.1239 74.4967 27.9773 73.8604 27.9773C73.1594 27.9773 72.5528 28.1513 72.0407 28.4993C71.5336 28.8423 71.1434 29.2898 70.8699 29.8416C70.5965 30.3935 70.4598 30.9851 70.4598 31.6165V32.6307C70.4598 33.4957 70.6089 34.229 70.9072 34.8306C71.2105 35.4272 71.6306 35.8821 72.1675 36.1953C72.7045 36.5036 73.3284 36.6577 74.0393 36.6577C74.5017 36.6577 74.9193 36.593 75.2922 36.4638C75.67 36.3295 75.9957 36.1307 76.2691 35.8672C76.5425 35.5987 76.7538 35.2656 76.903 34.8679L78.6033 35.3452C78.4243 35.9219 78.1235 36.429 77.7009 36.8665C77.2783 37.299 76.7563 37.6371 76.1349 37.8807C75.5134 38.1193 74.8149 38.2386 74.0393 38.2386ZM83.2194 22.7273V38H81.4594V22.7273H83.2194Z" fill="#2A3647"/>
<path d="M107.501 30.5001L112.744 35.7431M102.258 35.7431L107.501 30.5001L102.258 35.7431ZM112.744 25.2571L107.5 30.5001L112.744 25.2571ZM107.5 30.5001L102.258 25.2571L107.5 30.5001Z" stroke="#2A3647" stroke-width="2" stroke-linecap="round" stroke-linejoin="round"/>
<rect x="0.5" y="0.5" width="135" height="60" rx="9.5" stroke="#2A3647"/>
</svg>
