<svg width="136" height="61" viewBox="0 0 136 61" fill="none" xmlns="http://www.w3.org/2000/svg">
<path d="M38.6392 27.5H36.7898C36.6804 26.968 36.489 26.5007 36.2156 26.098C35.9471 25.6953 35.619 25.3572 35.2312 25.0838C34.8484 24.8054 34.4233 24.5966 33.956 24.4574C33.4886 24.3182 33.0014 24.2486 32.4943 24.2486C31.5696 24.2486 30.7319 24.4822 29.9812 24.9496C29.2354 25.4169 28.6413 26.1055 28.1989 27.0153C27.7614 27.9251 27.5426 29.0412 27.5426 30.3636C27.5426 31.6861 27.7614 32.8022 28.1989 33.712C28.6413 34.6218 29.2354 35.3104 29.9812 35.7777C30.7319 36.245 31.5696 36.4787 32.4943 36.4787C33.0014 36.4787 33.4886 36.4091 33.956 36.2699C34.4233 36.1307 34.8484 35.9244 35.2312 35.6509C35.619 35.3725 35.9471 35.032 36.2156 34.6293C36.489 34.2216 36.6804 33.7543 36.7898 33.2273H38.6392C38.5 34.0078 38.2464 34.7063 37.8786 35.3228C37.5107 35.9393 37.0533 36.4638 36.5064 36.8963C35.9595 37.3239 35.3455 37.6495 34.6644 37.8732C33.9883 38.0969 33.2649 38.2088 32.4943 38.2088C31.1918 38.2088 30.0334 37.8906 29.0192 37.2543C28.005 36.6179 27.207 35.7131 26.6254 34.5398C26.0437 33.3665 25.7528 31.9744 25.7528 30.3636C25.7528 28.7528 26.0437 27.3608 26.6254 26.1875C27.207 25.0142 28.005 24.1094 29.0192 23.473C30.0334 22.8366 31.1918 22.5185 32.4943 22.5185C33.2649 22.5185 33.9883 22.6303 34.6644 22.854C35.3455 23.0778 35.9595 23.4059 36.5064 23.8384C37.0533 24.266 37.5107 24.788 37.8786 25.4045C38.2464 26.016 38.5 26.7145 38.6392 27.5ZM43.1491 22.7273V38H41.3891V22.7273H43.1491ZM51.1751 38.2386C50.0714 38.2386 49.1193 37.995 48.3189 37.5078C47.5234 37.0156 46.9094 36.3295 46.4769 35.4496C46.0494 34.5646 45.8356 33.5355 45.8356 32.3622C45.8356 31.1889 46.0494 30.1548 46.4769 29.2599C46.9094 28.3601 47.511 27.6591 48.2816 27.157C49.0572 26.6499 49.962 26.3963 50.9961 26.3963C51.5927 26.3963 52.1818 26.4957 52.7635 26.6946C53.3452 26.8935 53.8746 27.2166 54.3519 27.6641C54.8292 28.1065 55.2095 28.6932 55.4929 29.424C55.7763 30.1548 55.918 31.0547 55.918 32.1236V32.8693H47.0884V31.348H54.1282C54.1282 30.7017 53.9989 30.125 53.7404 29.6179C53.4869 29.1108 53.1239 28.7106 52.6516 28.4173C52.1843 28.1239 51.6325 27.9773 50.9961 27.9773C50.2951 27.9773 49.6886 28.1513 49.1765 28.4993C48.6694 28.8423 48.2791 29.2898 48.0057 29.8416C47.7322 30.3935 47.5955 30.9851 47.5955 31.6165V32.6307C47.5955 33.4957 47.7447 34.229 48.043 34.8306C48.3462 35.4272 48.7663 35.8821 49.3033 36.1953C49.8402 36.5036 50.4641 36.6577 51.1751 36.6577C51.6374 36.6577 52.055 36.593 52.4279 36.4638C52.8058 36.3295 53.1314 36.1307 53.4048 35.8672C53.6783 35.5987 53.8896 35.2656 54.0387 34.8679L55.739 35.3452C55.56 35.9219 55.2592 36.429 54.8366 36.8665C54.4141 37.299 53.892 37.6371 53.2706 37.8807C52.6491 38.1193 51.9506 38.2386 51.1751 38.2386ZM61.9659 38.2685C61.2401 38.2685 60.5813 38.1317 59.9897 37.8583C59.3981 37.5799 58.9283 37.1797 58.5803 36.6577C58.2322 36.1307 58.0582 35.4943 58.0582 34.7486C58.0582 34.0923 58.1875 33.5604 58.446 33.1527C58.7045 32.7401 59.0501 32.4169 59.4826 32.1832C59.9151 31.9496 60.3924 31.7756 60.9144 31.6612C61.4414 31.5419 61.9709 31.4474 62.5028 31.3778C63.1989 31.2884 63.7631 31.2212 64.1957 31.1765C64.6332 31.1268 64.9513 31.0447 65.1502 30.9304C65.354 30.8161 65.456 30.6172 65.456 30.3338V30.2741C65.456 29.5384 65.2546 28.9666 64.8519 28.5589C64.4542 28.1513 63.8501 27.9474 63.0398 27.9474C62.1996 27.9474 61.5408 28.1314 61.0636 28.4993C60.5863 28.8672 60.2507 29.2599 60.0568 29.6776L58.3864 29.081C58.6847 28.3849 59.0824 27.843 59.5795 27.4553C60.0817 27.0625 60.6286 26.7891 61.2202 26.6349C61.8168 26.4759 62.4034 26.3963 62.9801 26.3963C63.348 26.3963 63.7706 26.4411 64.2479 26.5305C64.7301 26.6151 65.195 26.7915 65.6424 27.06C66.0948 27.3285 66.4702 27.7337 66.7685 28.2756C67.0668 28.8175 67.2159 29.5433 67.2159 30.4531V38H65.456V36.4489H65.3665C65.2472 36.6974 65.0483 36.9634 64.7699 37.2468C64.4915 37.5302 64.1211 37.7713 63.6587 37.9702C63.1964 38.169 62.6321 38.2685 61.9659 38.2685ZM62.2344 36.6875C62.9304 36.6875 63.517 36.5508 63.9943 36.2773C64.4766 36.0039 64.8395 35.6509 65.0831 35.2184C65.3317 34.7859 65.456 34.331 65.456 33.8537V32.2429C65.3814 32.3324 65.2173 32.4144 64.9638 32.489C64.7152 32.5586 64.4268 32.6207 64.0987 32.6754C63.7756 32.7251 63.4599 32.7699 63.1516 32.8097C62.8484 32.8445 62.6023 32.8743 62.4134 32.8991C61.956 32.9588 61.5284 33.0558 61.1307 33.19C60.7379 33.3192 60.4197 33.5156 60.1761 33.7791C59.9375 34.0376 59.8182 34.3906 59.8182 34.8381C59.8182 35.4496 60.0444 35.9119 60.4968 36.2251C60.9542 36.5334 61.5334 36.6875 62.2344 36.6875ZM70.4282 38V26.5455H72.1285V28.2756H72.2478C72.4566 27.7088 72.8344 27.2489 73.3813 26.896C73.9282 26.543 74.5447 26.3665 75.2307 26.3665C75.36 26.3665 75.5216 26.369 75.7155 26.3739C75.9094 26.3789 76.056 26.3864 76.1555 26.3963V28.1861C76.0958 28.1712 75.9591 28.1488 75.7453 28.119C75.5365 28.0842 75.3153 28.0668 75.0816 28.0668C74.5248 28.0668 74.0276 28.1836 73.5901 28.4173C73.1576 28.646 72.8145 28.9641 72.561 29.3718C72.3124 29.7745 72.1881 30.2344 72.1881 30.7514V38H70.4282Z" fill="#2A3647"/>
<path d="M99.5011 30.5001L104.744 35.7431M94.2581 35.7431L99.5011 30.5001L94.2581 35.7431ZM104.744 25.2571L99.5001 30.5001L104.744 25.2571ZM99.5001 30.5001L94.2581 25.2571L99.5001 30.5001Z" stroke="#2A3647" stroke-width="2" stroke-linecap="round" stroke-linejoin="round"/>
<rect x="0.5" y="0.5" width="135" height="60" rx="9.5" stroke="#2A3647"/>
</svg>
