<svg width="185" height="61" viewBox="0 0 177 61" fill="none" xmlns="http://www.w3.org/2000/svg">
<rect width="177" height="61" rx="10" fill="#2A3647"/>
<path d="M24.8029 28.0742H21.5366C21.4769 27.6516 21.3551 27.2763 21.1712 26.9482C20.9872 26.6151 20.7511 26.3317 20.4627 26.098C20.1744 25.8643 19.8413 25.6854 19.4634 25.5611C19.0906 25.4368 18.6854 25.3746 18.2479 25.3746C17.4574 25.3746 16.7688 25.571 16.1822 25.9638C15.5955 26.3516 15.1406 26.9183 14.8175 27.6641C14.4943 28.4048 14.3327 29.3047 14.3327 30.3636C14.3327 31.4524 14.4943 32.3672 14.8175 33.108C15.1456 33.8487 15.603 34.408 16.1896 34.7859C16.7763 35.1637 17.4549 35.3526 18.2255 35.3526C18.658 35.3526 19.0582 35.2955 19.4261 35.1811C19.799 35.0668 20.1296 34.9002 20.418 34.6815C20.7063 34.4577 20.945 34.1868 21.1339 33.8686C21.3278 33.5504 21.462 33.1875 21.5366 32.7798L24.8029 32.7947C24.7184 33.4957 24.5071 34.1719 24.169 34.8232C23.8359 35.4695 23.386 36.0487 22.8192 36.5607C22.2575 37.0678 21.5863 37.4705 20.8058 37.7688C20.0302 38.0621 19.1527 38.2088 18.1733 38.2088C16.8111 38.2088 15.593 37.9006 14.5192 37.2841C13.4503 36.6676 12.6051 35.7752 11.9837 34.6069C11.3672 33.4386 11.0589 32.0241 11.0589 30.3636C11.0589 28.6982 11.3722 27.2812 11.9986 26.1129C12.625 24.9446 13.4751 24.0547 14.549 23.4432C15.6229 22.8267 16.831 22.5185 18.1733 22.5185C19.0582 22.5185 19.8786 22.6428 20.6342 22.8913C21.3949 23.1399 22.0685 23.5028 22.6552 23.9801C23.2418 24.4524 23.7191 25.0316 24.087 25.7177C24.4599 26.4038 24.6985 27.1893 24.8029 28.0742ZM27.0588 38V26.5455H30.1387V28.544H30.258C30.4668 27.8331 30.8173 27.2962 31.3095 26.9332C31.8017 26.5653 32.3684 26.3814 33.0098 26.3814C33.1689 26.3814 33.3404 26.3913 33.5243 26.4112C33.7083 26.4311 33.8699 26.4585 34.0091 26.4933V29.3121C33.8599 29.2674 33.6536 29.2276 33.3901 29.1928C33.1266 29.158 32.8855 29.1406 32.6667 29.1406C32.1994 29.1406 31.7818 29.2425 31.4139 29.4464C31.051 29.6452 30.7626 29.9237 30.5488 30.2816C30.34 30.6396 30.2356 31.0522 30.2356 31.5195V38H27.0588ZM40.3385 38.2237C39.1602 38.2237 38.146 37.9851 37.2959 37.5078C36.4507 37.0256 35.7994 36.3445 35.3421 35.4645C34.8847 34.5795 34.656 33.533 34.656 32.3249C34.656 31.1467 34.8847 30.1126 35.3421 29.2227C35.7994 28.3327 36.4433 27.6392 37.2735 27.142C38.1088 26.6449 39.0882 26.3963 40.2117 26.3963C40.9674 26.3963 41.6709 26.5181 42.3222 26.7617C42.9784 27.0004 43.5502 27.3608 44.0374 27.843C44.5296 28.3253 44.9124 28.9318 45.1858 29.6626C45.4593 30.3885 45.596 31.2386 45.596 32.2131V33.0856H35.9237V31.1168H42.6056C42.6056 30.6594 42.5061 30.2543 42.3073 29.9013C42.1084 29.5483 41.8325 29.2724 41.4795 29.0735C41.1315 28.8697 40.7263 28.7678 40.2639 28.7678C39.7817 28.7678 39.3541 28.8796 38.9813 29.1033C38.6134 29.3221 38.325 29.6179 38.1162 29.9908C37.9074 30.3587 37.8005 30.7688 37.7955 31.2212V33.093C37.7955 33.6598 37.8999 34.1495 38.1088 34.5621C38.3225 34.9748 38.6233 35.293 39.0111 35.5167C39.3989 35.7404 39.8588 35.8523 40.3907 35.8523C40.7437 35.8523 41.0669 35.8026 41.3602 35.7031C41.6535 35.6037 41.9046 35.4545 42.1134 35.2557C42.3222 35.0568 42.4813 34.8132 42.5906 34.5249L45.5289 34.7188C45.3797 35.4247 45.074 36.0412 44.6116 36.5682C44.1542 37.0902 43.5626 37.4979 42.8367 37.7912C42.1159 38.0795 41.2831 38.2237 40.3385 38.2237ZM50.9355 38.2163C50.2046 38.2163 49.5534 38.0895 48.9816 37.8359C48.4099 37.5774 47.9575 37.1971 47.6244 36.695C47.2963 36.1879 47.1322 35.5565 47.1322 34.8008C47.1322 34.1644 47.249 33.63 47.4827 33.1974C47.7164 32.7649 48.0345 32.4169 48.4372 32.1534C48.8399 31.8899 49.2973 31.6911 49.8094 31.5568C50.3264 31.4226 50.8683 31.3281 51.4351 31.2734C52.1013 31.2038 52.6382 31.1392 53.0459 31.0795C53.4536 31.0149 53.7494 30.9205 53.9333 30.7962C54.1173 30.6719 54.2093 30.4879 54.2093 30.2443V30.1996C54.2093 29.7273 54.0601 29.3619 53.7618 29.1033C53.4685 28.8448 53.0509 28.7156 52.509 28.7156C51.9372 28.7156 51.4823 28.8423 51.1443 29.0959C50.8062 29.3445 50.5825 29.6577 50.4731 30.0355L47.5349 29.7969C47.684 29.1009 47.9774 28.4993 48.4149 27.9922C48.8524 27.4801 49.4166 27.0874 50.1077 26.8139C50.8037 26.5355 51.6091 26.3963 52.5239 26.3963C53.1602 26.3963 53.7693 26.4709 54.3509 26.62C54.9376 26.7692 55.4571 27.0004 55.9095 27.3136C56.3669 27.6268 56.7274 28.0295 56.9909 28.5217C57.2544 29.0089 57.3861 29.593 57.3861 30.2741V38H54.3733V36.4116H54.2838C54.0999 36.7695 53.8538 37.0852 53.5455 37.3587C53.2373 37.6271 52.8669 37.8384 52.4344 37.9925C52.0019 38.1417 51.5022 38.2163 50.9355 38.2163ZM51.8453 36.0238C52.3126 36.0238 52.7252 35.9318 53.0832 35.7479C53.4411 35.5589 53.722 35.3054 53.9259 34.9872C54.1297 34.669 54.2316 34.3086 54.2316 33.9059V32.6903C54.1322 32.755 53.9955 32.8146 53.8215 32.8693C53.6524 32.919 53.461 32.9663 53.2472 33.011C53.0335 33.0508 52.8197 33.0881 52.6059 33.1229C52.3921 33.1527 52.1982 33.18 52.0242 33.2049C51.6514 33.2596 51.3257 33.3466 51.0473 33.4659C50.7689 33.5852 50.5526 33.7468 50.3985 33.9506C50.2444 34.1495 50.1673 34.3981 50.1673 34.6964C50.1673 35.1289 50.324 35.4595 50.6372 35.6882C50.9553 35.9119 51.358 36.0238 51.8453 36.0238ZM65.9434 26.5455V28.9318H59.0454V26.5455H65.9434ZM60.6114 23.8011H63.7883V34.4801C63.7883 34.7734 63.833 35.0021 63.9225 35.1662C64.012 35.3253 64.1363 35.4371 64.2954 35.5018C64.4594 35.5664 64.6483 35.5987 64.8621 35.5987C65.0113 35.5987 65.1604 35.5863 65.3096 35.5614C65.4587 35.5316 65.5731 35.5092 65.6526 35.4943L66.1523 37.8583C65.9932 37.908 65.7694 37.9652 65.4811 38.0298C65.1927 38.0994 64.8422 38.1417 64.4296 38.1566C63.664 38.1864 62.9928 38.0845 62.4161 37.8509C61.8444 37.6172 61.3994 37.2543 61.0812 36.7621C60.7631 36.2699 60.6064 35.6484 60.6114 34.8977V23.8011ZM73.11 38.2237C71.9317 38.2237 70.9175 37.9851 70.0674 37.5078C69.2222 37.0256 68.5709 36.3445 68.1135 35.4645C67.6562 34.5795 67.4275 33.533 67.4275 32.3249C67.4275 31.1467 67.6562 30.1126 68.1135 29.2227C68.5709 28.3327 69.2148 27.6392 70.045 27.142C70.8802 26.6449 71.8596 26.3963 72.9832 26.3963C73.7389 26.3963 74.4424 26.5181 75.0937 26.7617C75.7499 27.0004 76.3216 27.3608 76.8089 27.843C77.301 28.3253 77.6839 28.9318 77.9573 29.6626C78.2307 30.3885 78.3675 31.2386 78.3675 32.2131V33.0856H68.6952V31.1168H75.377C75.377 30.6594 75.2776 30.2543 75.0787 29.9013C74.8799 29.5483 74.604 29.2724 74.251 29.0735C73.903 28.8697 73.4978 28.7678 73.0354 28.7678C72.5532 28.7678 72.1256 28.8796 71.7528 29.1033C71.3849 29.3221 71.0965 29.6179 70.8877 29.9908C70.6789 30.3587 70.572 30.7688 70.567 31.2212V33.093C70.567 33.6598 70.6714 34.1495 70.8802 34.5621C71.094 34.9748 71.3948 35.293 71.7826 35.5167C72.1704 35.7404 72.6302 35.8523 73.1622 35.8523C73.5152 35.8523 73.8383 35.8026 74.1317 35.7031C74.425 35.6037 74.676 35.4545 74.8849 35.2557C75.0937 35.0568 75.2528 34.8132 75.3621 34.5249L78.3003 34.7188C78.1512 35.4247 77.8454 36.0412 77.3831 36.5682C76.9257 37.0902 76.3341 37.4979 75.6082 37.7912C74.8873 38.0795 74.0546 38.2237 73.11 38.2237ZM84.7789 25.3896V22.7273H97.3223V25.3896H92.6465V38H89.4547V25.3896H84.7789ZM101.036 38.2163C100.305 38.2163 99.6539 38.0895 99.0822 37.8359C98.5105 37.5774 98.0581 37.1971 97.725 36.695C97.3968 36.1879 97.2328 35.5565 97.2328 34.8008C97.2328 34.1644 97.3496 33.63 97.5833 33.1974C97.8169 32.7649 98.1351 32.4169 98.5378 32.1534C98.9405 31.8899 99.3979 31.6911 99.91 31.5568C100.427 31.4226 100.969 31.3281 101.536 31.2734C102.202 31.2038 102.739 31.1392 103.146 31.0795C103.554 31.0149 103.85 30.9205 104.034 30.7962C104.218 30.6719 104.31 30.4879 104.31 30.2443V30.1996C104.31 29.7273 104.161 29.3619 103.862 29.1033C103.569 28.8448 103.151 28.7156 102.61 28.7156C102.038 28.7156 101.583 28.8423 101.245 29.0959C100.907 29.3445 100.683 29.6577 100.574 30.0355L97.6355 29.7969C97.7846 29.1009 98.0779 28.4993 98.5154 27.9922C98.9529 27.4801 99.5172 27.0874 100.208 26.8139C100.904 26.5355 101.71 26.3963 102.624 26.3963C103.261 26.3963 103.87 26.4709 104.452 26.62C105.038 26.7692 105.558 27.0004 106.01 27.3136C106.468 27.6268 106.828 28.0295 107.091 28.5217C107.355 29.0089 107.487 29.593 107.487 30.2741V38H104.474V36.4116H104.384C104.2 36.7695 103.954 37.0852 103.646 37.3587C103.338 37.6271 102.968 37.8384 102.535 37.9925C102.102 38.1417 101.603 38.2163 101.036 38.2163ZM101.946 36.0238C102.413 36.0238 102.826 35.9318 103.184 35.7479C103.542 35.5589 103.823 35.3054 104.026 34.9872C104.23 34.669 104.332 34.3086 104.332 33.9059V32.6903C104.233 32.755 104.096 32.8146 103.922 32.8693C103.753 32.919 103.562 32.9663 103.348 33.011C103.134 33.0508 102.92 33.0881 102.706 33.1229C102.493 33.1527 102.299 33.18 102.125 33.2049C101.752 33.2596 101.426 33.3466 101.148 33.4659C100.869 33.5852 100.653 33.7468 100.499 33.9506C100.345 34.1495 100.268 34.3981 100.268 34.6964C100.268 35.1289 100.425 35.4595 100.738 35.6882C101.056 35.9119 101.459 36.0238 101.946 36.0238ZM119.482 29.8118L116.574 29.9908C116.524 29.7422 116.417 29.5185 116.253 29.3196C116.089 29.1158 115.873 28.9542 115.604 28.8349C115.341 28.7106 115.025 28.6484 114.657 28.6484C114.165 28.6484 113.75 28.7528 113.412 28.9616C113.074 29.1655 112.904 29.4389 112.904 29.782C112.904 30.0554 113.014 30.2866 113.233 30.4755C113.451 30.6644 113.827 30.8161 114.359 30.9304L116.432 31.348C117.545 31.5767 118.376 31.9446 118.923 32.4517C119.469 32.9588 119.743 33.625 119.743 34.4503C119.743 35.201 119.522 35.8597 119.079 36.4265C118.642 36.9933 118.04 37.4357 117.275 37.7539C116.514 38.0671 115.636 38.2237 114.642 38.2237C113.126 38.2237 111.918 37.908 111.018 37.2766C110.123 36.6403 109.598 35.7752 109.444 34.6815L112.569 34.5174C112.663 34.9798 112.892 35.3327 113.255 35.5763C113.618 35.815 114.083 35.9343 114.65 35.9343C115.206 35.9343 115.654 35.8274 115.992 35.6136C116.335 35.3949 116.509 35.114 116.514 34.771C116.509 34.4826 116.387 34.2464 116.148 34.0625C115.91 33.8736 115.542 33.7294 115.045 33.63L113.061 33.2347C111.942 33.011 111.11 32.6232 110.563 32.0714C110.021 31.5195 109.75 30.8161 109.75 29.9609C109.75 29.2251 109.949 28.5913 110.347 28.0593C110.749 27.5273 111.314 27.1172 112.039 26.8288C112.77 26.5405 113.625 26.3963 114.605 26.3963C116.051 26.3963 117.19 26.7021 118.02 27.3136C118.855 27.9251 119.343 28.7578 119.482 29.8118ZM124.622 34.7038L124.629 30.8931H125.092L128.761 26.5455H132.407L127.478 32.3026H126.725L124.622 34.7038ZM121.743 38V22.7273H124.92V38H121.743ZM128.902 38L125.532 33.011L127.65 30.7663L132.624 38H128.902Z" fill="white"/>
<path d="M147 30.5L153 36.5L163 24.5" stroke="white" stroke-width="2" stroke-linecap="round" stroke-linejoin="round"/>
</svg>
