<svg width="185" height="69" viewBox="0 0 185 69" fill="none" xmlns="http://www.w3.org/2000/svg">
<g filter="url(#filter0_d_70_807)">
<rect x="4" width="177" height="61" rx="10" fill="#091931"/>
<path d="M28.8029 28.0742H25.5366C25.4769 27.6516 25.3551 27.2763 25.1712 26.9482C24.9872 26.6151 24.7511 26.3317 24.4627 26.098C24.1744 25.8643 23.8413 25.6854 23.4634 25.5611C23.0906 25.4368 22.6854 25.3746 22.2479 25.3746C21.4574 25.3746 20.7688 25.571 20.1822 25.9638C19.5955 26.3516 19.1406 26.9183 18.8175 27.6641C18.4943 28.4048 18.3327 29.3047 18.3327 30.3636C18.3327 31.4524 18.4943 32.3672 18.8175 33.108C19.1456 33.8487 19.603 34.408 20.1896 34.7859C20.7763 35.1637 21.4549 35.3526 22.2255 35.3526C22.658 35.3526 23.0582 35.2955 23.4261 35.1811C23.799 35.0668 24.1296 34.9002 24.418 34.6815C24.7063 34.4577 24.945 34.1868 25.1339 33.8686C25.3278 33.5504 25.462 33.1875 25.5366 32.7798L28.8029 32.7947C28.7184 33.4957 28.5071 34.1719 28.169 34.8232C27.8359 35.4695 27.386 36.0487 26.8192 36.5607C26.2575 37.0678 25.5863 37.4705 24.8058 37.7688C24.0302 38.0621 23.1527 38.2088 22.1733 38.2088C20.8111 38.2088 19.593 37.9006 18.5192 37.2841C17.4503 36.6676 16.6051 35.7752 15.9837 34.6069C15.3672 33.4386 15.0589 32.0241 15.0589 30.3636C15.0589 28.6982 15.3722 27.2812 15.9986 26.1129C16.625 24.9446 17.4751 24.0547 18.549 23.4432C19.6229 22.8267 20.831 22.5185 22.1733 22.5185C23.0582 22.5185 23.8786 22.6428 24.6342 22.8913C25.3949 23.1399 26.0685 23.5028 26.6552 23.9801C27.2418 24.4524 27.7191 25.0316 28.087 25.7177C28.4599 26.4038 28.6985 27.1893 28.8029 28.0742ZM31.0588 38V26.5455H34.1387V28.544H34.258C34.4668 27.8331 34.8173 27.2962 35.3095 26.9332C35.8017 26.5653 36.3684 26.3814 37.0098 26.3814C37.1689 26.3814 37.3404 26.3913 37.5243 26.4112C37.7083 26.4311 37.8699 26.4585 38.0091 26.4933V29.3121C37.8599 29.2674 37.6536 29.2276 37.3901 29.1928C37.1266 29.158 36.8855 29.1406 36.6667 29.1406C36.1994 29.1406 35.7818 29.2425 35.4139 29.4464C35.051 29.6452 34.7626 29.9237 34.5488 30.2816C34.34 30.6396 34.2356 31.0522 34.2356 31.5195V38H31.0588ZM44.3385 38.2237C43.1602 38.2237 42.146 37.9851 41.2959 37.5078C40.4507 37.0256 39.7994 36.3445 39.3421 35.4645C38.8847 34.5795 38.656 33.533 38.656 32.3249C38.656 31.1467 38.8847 30.1126 39.3421 29.2227C39.7994 28.3327 40.4433 27.6392 41.2735 27.142C42.1088 26.6449 43.0882 26.3963 44.2117 26.3963C44.9674 26.3963 45.6709 26.5181 46.3222 26.7617C46.9784 27.0004 47.5502 27.3608 48.0374 27.843C48.5296 28.3253 48.9124 28.9318 49.1858 29.6626C49.4593 30.3885 49.596 31.2386 49.596 32.2131V33.0856H39.9237V31.1168H46.6056C46.6056 30.6594 46.5061 30.2543 46.3073 29.9013C46.1084 29.5483 45.8325 29.2724 45.4795 29.0735C45.1315 28.8697 44.7263 28.7678 44.2639 28.7678C43.7817 28.7678 43.3541 28.8796 42.9813 29.1033C42.6134 29.3221 42.325 29.6179 42.1162 29.9908C41.9074 30.3587 41.8005 30.7688 41.7955 31.2212V33.093C41.7955 33.6598 41.8999 34.1495 42.1088 34.5621C42.3225 34.9748 42.6233 35.293 43.0111 35.5167C43.3989 35.7404 43.8588 35.8523 44.3907 35.8523C44.7437 35.8523 45.0669 35.8026 45.3602 35.7031C45.6535 35.6037 45.9046 35.4545 46.1134 35.2557C46.3222 35.0568 46.4813 34.8132 46.5906 34.5249L49.5289 34.7188C49.3797 35.4247 49.074 36.0412 48.6116 36.5682C48.1542 37.0902 47.5626 37.4979 46.8367 37.7912C46.1159 38.0795 45.2831 38.2237 44.3385 38.2237ZM54.9355 38.2163C54.2046 38.2163 53.5534 38.0895 52.9816 37.8359C52.4099 37.5774 51.9575 37.1971 51.6244 36.695C51.2963 36.1879 51.1322 35.5565 51.1322 34.8008C51.1322 34.1644 51.249 33.63 51.4827 33.1974C51.7164 32.7649 52.0345 32.4169 52.4372 32.1534C52.8399 31.8899 53.2973 31.6911 53.8094 31.5568C54.3264 31.4226 54.8683 31.3281 55.4351 31.2734C56.1013 31.2038 56.6382 31.1392 57.0459 31.0795C57.4536 31.0149 57.7494 30.9205 57.9333 30.7962C58.1173 30.6719 58.2093 30.4879 58.2093 30.2443V30.1996C58.2093 29.7273 58.0601 29.3619 57.7618 29.1033C57.4685 28.8448 57.0509 28.7156 56.509 28.7156C55.9372 28.7156 55.4823 28.8423 55.1443 29.0959C54.8062 29.3445 54.5825 29.6577 54.4731 30.0355L51.5349 29.7969C51.684 29.1009 51.9774 28.4993 52.4149 27.9922C52.8524 27.4801 53.4166 27.0874 54.1077 26.8139C54.8037 26.5355 55.6091 26.3963 56.5239 26.3963C57.1602 26.3963 57.7693 26.4709 58.3509 26.62C58.9376 26.7692 59.4571 27.0004 59.9095 27.3136C60.3669 27.6268 60.7274 28.0295 60.9909 28.5217C61.2544 29.0089 61.3861 29.593 61.3861 30.2741V38H58.3733V36.4116H58.2838C58.0999 36.7695 57.8538 37.0852 57.5455 37.3587C57.2373 37.6271 56.8669 37.8384 56.4344 37.9925C56.0019 38.1417 55.5022 38.2163 54.9355 38.2163ZM55.8453 36.0238C56.3126 36.0238 56.7252 35.9318 57.0832 35.7479C57.4411 35.5589 57.722 35.3054 57.9259 34.9872C58.1297 34.669 58.2316 34.3086 58.2316 33.9059V32.6903C58.1322 32.755 57.9955 32.8146 57.8215 32.8693C57.6524 32.919 57.461 32.9663 57.2472 33.011C57.0335 33.0508 56.8197 33.0881 56.6059 33.1229C56.3921 33.1527 56.1982 33.18 56.0242 33.2049C55.6514 33.2596 55.3257 33.3466 55.0473 33.4659C54.7689 33.5852 54.5526 33.7468 54.3985 33.9506C54.2444 34.1495 54.1673 34.3981 54.1673 34.6964C54.1673 35.1289 54.324 35.4595 54.6372 35.6882C54.9553 35.9119 55.358 36.0238 55.8453 36.0238ZM69.9434 26.5455V28.9318H63.0454V26.5455H69.9434ZM64.6114 23.8011H67.7883V34.4801C67.7883 34.7734 67.833 35.0021 67.9225 35.1662C68.012 35.3253 68.1363 35.4371 68.2954 35.5018C68.4594 35.5664 68.6483 35.5987 68.8621 35.5987C69.0113 35.5987 69.1604 35.5863 69.3096 35.5614C69.4587 35.5316 69.5731 35.5092 69.6526 35.4943L70.1523 37.8583C69.9932 37.908 69.7694 37.9652 69.4811 38.0298C69.1927 38.0994 68.8422 38.1417 68.4296 38.1566C67.664 38.1864 66.9928 38.0845 66.4161 37.8509C65.8444 37.6172 65.3994 37.2543 65.0812 36.7621C64.7631 36.2699 64.6064 35.6484 64.6114 34.8977V23.8011ZM77.11 38.2237C75.9317 38.2237 74.9175 37.9851 74.0674 37.5078C73.2222 37.0256 72.5709 36.3445 72.1135 35.4645C71.6562 34.5795 71.4275 33.533 71.4275 32.3249C71.4275 31.1467 71.6562 30.1126 72.1135 29.2227C72.5709 28.3327 73.2148 27.6392 74.045 27.142C74.8802 26.6449 75.8596 26.3963 76.9832 26.3963C77.7389 26.3963 78.4424 26.5181 79.0937 26.7617C79.7499 27.0004 80.3216 27.3608 80.8089 27.843C81.301 28.3253 81.6839 28.9318 81.9573 29.6626C82.2307 30.3885 82.3675 31.2386 82.3675 32.2131V33.0856H72.6952V31.1168H79.377C79.377 30.6594 79.2776 30.2543 79.0787 29.9013C78.8799 29.5483 78.604 29.2724 78.251 29.0735C77.903 28.8697 77.4978 28.7678 77.0354 28.7678C76.5532 28.7678 76.1256 28.8796 75.7528 29.1033C75.3849 29.3221 75.0965 29.6179 74.8877 29.9908C74.6789 30.3587 74.572 30.7688 74.567 31.2212V33.093C74.567 33.6598 74.6714 34.1495 74.8802 34.5621C75.094 34.9748 75.3948 35.293 75.7826 35.5167C76.1704 35.7404 76.6302 35.8523 77.1622 35.8523C77.5152 35.8523 77.8383 35.8026 78.1317 35.7031C78.425 35.6037 78.676 35.4545 78.8849 35.2557C79.0937 35.0568 79.2528 34.8132 79.3621 34.5249L82.3003 34.7188C82.1512 35.4247 81.8454 36.0412 81.3831 36.5682C80.9257 37.0902 80.3341 37.4979 79.6082 37.7912C78.8873 38.0795 78.0546 38.2237 77.11 38.2237ZM88.7789 25.3896V22.7273H101.322V25.3896H96.6465V38H93.4547V25.3896H88.7789ZM105.036 38.2163C104.305 38.2163 103.654 38.0895 103.082 37.8359C102.51 37.5774 102.058 37.1971 101.725 36.695C101.397 36.1879 101.233 35.5565 101.233 34.8008C101.233 34.1644 101.35 33.63 101.583 33.1974C101.817 32.7649 102.135 32.4169 102.538 32.1534C102.941 31.8899 103.398 31.6911 103.91 31.5568C104.427 31.4226 104.969 31.3281 105.536 31.2734C106.202 31.2038 106.739 31.1392 107.146 31.0795C107.554 31.0149 107.85 30.9205 108.034 30.7962C108.218 30.6719 108.31 30.4879 108.31 30.2443V30.1996C108.31 29.7273 108.161 29.3619 107.862 29.1033C107.569 28.8448 107.151 28.7156 106.61 28.7156C106.038 28.7156 105.583 28.8423 105.245 29.0959C104.907 29.3445 104.683 29.6577 104.574 30.0355L101.635 29.7969C101.785 29.1009 102.078 28.4993 102.515 27.9922C102.953 27.4801 103.517 27.0874 104.208 26.8139C104.904 26.5355 105.71 26.3963 106.624 26.3963C107.261 26.3963 107.87 26.4709 108.452 26.62C109.038 26.7692 109.558 27.0004 110.01 27.3136C110.468 27.6268 110.828 28.0295 111.091 28.5217C111.355 29.0089 111.487 29.593 111.487 30.2741V38H108.474V36.4116H108.384C108.2 36.7695 107.954 37.0852 107.646 37.3587C107.338 37.6271 106.968 37.8384 106.535 37.9925C106.102 38.1417 105.603 38.2163 105.036 38.2163ZM105.946 36.0238C106.413 36.0238 106.826 35.9318 107.184 35.7479C107.542 35.5589 107.823 35.3054 108.026 34.9872C108.23 34.669 108.332 34.3086 108.332 33.9059V32.6903C108.233 32.755 108.096 32.8146 107.922 32.8693C107.753 32.919 107.562 32.9663 107.348 33.011C107.134 33.0508 106.92 33.0881 106.706 33.1229C106.493 33.1527 106.299 33.18 106.125 33.2049C105.752 33.2596 105.426 33.3466 105.148 33.4659C104.869 33.5852 104.653 33.7468 104.499 33.9506C104.345 34.1495 104.268 34.3981 104.268 34.6964C104.268 35.1289 104.425 35.4595 104.738 35.6882C105.056 35.9119 105.459 36.0238 105.946 36.0238ZM123.482 29.8118L120.574 29.9908C120.524 29.7422 120.417 29.5185 120.253 29.3196C120.089 29.1158 119.873 28.9542 119.604 28.8349C119.341 28.7106 119.025 28.6484 118.657 28.6484C118.165 28.6484 117.75 28.7528 117.412 28.9616C117.074 29.1655 116.904 29.4389 116.904 29.782C116.904 30.0554 117.014 30.2866 117.233 30.4755C117.451 30.6644 117.827 30.8161 118.359 30.9304L120.432 31.348C121.545 31.5767 122.376 31.9446 122.923 32.4517C123.469 32.9588 123.743 33.625 123.743 34.4503C123.743 35.201 123.522 35.8597 123.079 36.4265C122.642 36.9933 122.04 37.4357 121.275 37.7539C120.514 38.0671 119.636 38.2237 118.642 38.2237C117.126 38.2237 115.918 37.908 115.018 37.2766C114.123 36.6403 113.598 35.7752 113.444 34.6815L116.569 34.5174C116.663 34.9798 116.892 35.3327 117.255 35.5763C117.618 35.815 118.083 35.9343 118.65 35.9343C119.206 35.9343 119.654 35.8274 119.992 35.6136C120.335 35.3949 120.509 35.114 120.514 34.771C120.509 34.4826 120.387 34.2464 120.148 34.0625C119.91 33.8736 119.542 33.7294 119.045 33.63L117.061 33.2347C115.942 33.011 115.11 32.6232 114.563 32.0714C114.021 31.5195 113.75 30.8161 113.75 29.9609C113.75 29.2251 113.949 28.5913 114.347 28.0593C114.749 27.5273 115.314 27.1172 116.039 26.8288C116.77 26.5405 117.625 26.3963 118.605 26.3963C120.051 26.3963 121.19 26.7021 122.02 27.3136C122.855 27.9251 123.343 28.7578 123.482 29.8118ZM128.622 34.7038L128.629 30.8931H129.092L132.761 26.5455H136.407L131.478 32.3026H130.725L128.622 34.7038ZM125.743 38V22.7273H128.92V38H125.743ZM132.902 38L129.532 33.011L131.65 30.7663L136.624 38H132.902Z" fill="white"/>
<path d="M151 30.5L157 36.5L167 24.5" stroke="white" stroke-width="2" stroke-linecap="round" stroke-linejoin="round"/>
</g>
<defs>
<filter id="filter0_d_70_807" x="0" y="0" width="185" height="69" filterUnits="userSpaceOnUse" color-interpolation-filters="sRGB">
<feFlood flood-opacity="0" result="BackgroundImageFix"/>
<feColorMatrix in="SourceAlpha" type="matrix" values="0 0 0 0 0 0 0 0 0 0 0 0 0 0 0 0 0 0 127 0" result="hardAlpha"/>
<feOffset dy="4"/>
<feGaussianBlur stdDeviation="2"/>
<feComposite in2="hardAlpha" operator="out"/>
<feColorMatrix type="matrix" values="0 0 0 0 0 0 0 0 0 0 0 0 0 0 0 0 0 0 0.25 0"/>
<feBlend mode="normal" in2="BackgroundImageFix" result="effect1_dropShadow_70_807"/>
<feBlend mode="normal" in="SourceGraphic" in2="effect1_dropShadow_70_807" result="shape"/>
</filter>
</defs>
</svg>
