<svg width="124" height="52" viewBox="0 0 124 52" fill="none" xmlns="http://www.w3.org/2000/svg">
<rect y="0.00976562" width="124" height="51" rx="10" fill="#2A3647"/>
<path d="M24.8029 23.084H21.5366C21.4769 22.6614 21.3551 22.286 21.1712 21.9579C20.9872 21.6248 20.7511 21.3414 20.4627 21.1078C20.1744 20.8741 19.8413 20.6951 19.4634 20.5708C19.0906 20.4466 18.6854 20.3844 18.2479 20.3844C17.4574 20.3844 16.7688 20.5808 16.1822 20.9735C15.5955 21.3613 15.1406 21.9281 14.8175 22.6738C14.4943 23.4146 14.3327 24.3145 14.3327 25.3734C14.3327 26.4622 14.4943 27.377 14.8175 28.1177C15.1456 28.8585 15.603 29.4178 16.1896 29.7956C16.7763 30.1735 17.4549 30.3624 18.2255 30.3624C18.658 30.3624 19.0582 30.3052 19.4261 30.1909C19.799 30.0765 20.1296 29.91 20.418 29.6912C20.7063 29.4675 20.945 29.1966 21.1339 28.8784C21.3278 28.5602 21.462 28.1973 21.5366 27.7896L24.8029 27.8045C24.7184 28.5055 24.5071 29.1816 24.169 29.8329C23.8359 30.4792 23.386 31.0584 22.8192 31.5705C22.2575 32.0776 21.5863 32.4803 20.8058 32.7786C20.0302 33.0719 19.1527 33.2186 18.1733 33.2186C16.8111 33.2186 15.593 32.9103 14.5192 32.2939C13.4503 31.6774 12.6051 30.785 11.9837 29.6167C11.3672 28.4483 11.0589 27.0339 11.0589 25.3734C11.0589 23.7079 11.3722 22.291 11.9986 21.1227C12.625 19.9544 13.4751 19.0645 14.549 18.4529C15.6229 17.8365 16.831 17.5282 18.1733 17.5282C19.0582 17.5282 19.8786 17.6525 20.6342 17.9011C21.3949 18.1497 22.0685 18.5126 22.6552 18.9899C23.2418 19.4622 23.7191 20.0414 24.087 20.7274C24.4599 21.4135 24.6985 22.199 24.8029 23.084ZM27.0588 33.0098V21.5552H30.1387V23.5538H30.258C30.4668 22.8429 30.8173 22.3059 31.3095 21.943C31.8017 21.5751 32.3684 21.3912 33.0098 21.3912C33.1689 21.3912 33.3404 21.4011 33.5243 21.421C33.7083 21.4409 33.8699 21.4682 34.0091 21.503V24.3219C33.8599 24.2772 33.6536 24.2374 33.3901 24.2026C33.1266 24.1678 32.8855 24.1504 32.6667 24.1504C32.1994 24.1504 31.7818 24.2523 31.4139 24.4561C31.051 24.655 30.7626 24.9334 30.5488 25.2914C30.34 25.6493 30.2356 26.062 30.2356 26.5293V33.0098H27.0588ZM40.3385 33.2335C39.1602 33.2335 38.146 32.9949 37.2959 32.5176C36.4507 32.0353 35.7994 31.3542 35.3421 30.4743C34.8847 29.5893 34.656 28.5428 34.656 27.3347C34.656 26.1564 34.8847 25.1223 35.3421 24.2324C35.7994 23.3425 36.4433 22.649 37.2735 22.1518C38.1088 21.6547 39.0882 21.4061 40.2117 21.4061C40.9674 21.4061 41.6709 21.5279 42.3222 21.7715C42.9784 22.0101 43.5502 22.3706 44.0374 22.8528C44.5296 23.335 44.9124 23.9416 45.1858 24.6724C45.4593 25.3983 45.596 26.2484 45.596 27.2228V28.0953H35.9237V26.1266H42.6056C42.6056 25.6692 42.5061 25.264 42.3073 24.911C42.1084 24.5581 41.8325 24.2821 41.4795 24.0833C41.1315 23.8794 40.7263 23.7775 40.2639 23.7775C39.7817 23.7775 39.3541 23.8894 38.9813 24.1131C38.6134 24.3319 38.325 24.6277 38.1162 25.0005C37.9074 25.3684 37.8005 25.7786 37.7955 26.231V28.1028C37.7955 28.6696 37.8999 29.1593 38.1088 29.5719C38.3225 29.9846 38.6233 30.3027 39.0111 30.5265C39.3989 30.7502 39.8588 30.862 40.3907 30.862C40.7437 30.862 41.0669 30.8123 41.3602 30.7129C41.6535 30.6135 41.9046 30.4643 42.1134 30.2654C42.3222 30.0666 42.4813 29.823 42.5906 29.5346L45.5289 29.7285C45.3797 30.4345 45.074 31.051 44.6116 31.5779C44.1542 32.1 43.5626 32.5076 42.8367 32.801C42.1159 33.0893 41.2831 33.2335 40.3385 33.2335ZM50.9355 33.226C50.2046 33.226 49.5534 33.0993 48.9816 32.8457C48.4099 32.5872 47.9575 32.2069 47.6244 31.7047C47.2963 31.1976 47.1322 30.5662 47.1322 29.8105C47.1322 29.1742 47.249 28.6397 47.4827 28.2072C47.7164 27.7747 48.0345 27.4267 48.4372 27.1632C48.8399 26.8997 49.2973 26.7008 49.8094 26.5666C50.3264 26.4324 50.8683 26.3379 51.4351 26.2832C52.1013 26.2136 52.6382 26.149 53.0459 26.0893C53.4536 26.0247 53.7494 25.9302 53.9333 25.8059C54.1173 25.6816 54.2093 25.4977 54.2093 25.2541V25.2093C54.2093 24.737 54.0601 24.3716 53.7618 24.1131C53.4685 23.8546 53.0509 23.7253 52.509 23.7253C51.9372 23.7253 51.4823 23.8521 51.1443 24.1056C50.8062 24.3542 50.5825 24.6674 50.4731 25.0453L47.5349 24.8066C47.684 24.1106 47.9774 23.5091 48.4149 23.002C48.8524 22.4899 49.4166 22.0971 50.1077 21.8237C50.8037 21.5453 51.6091 21.4061 52.5239 21.4061C53.1602 21.4061 53.7693 21.4806 54.3509 21.6298C54.9376 21.7789 55.4571 22.0101 55.9095 22.3233C56.3669 22.6365 56.7274 23.0392 56.9909 23.5314C57.2544 24.0186 57.3861 24.6028 57.3861 25.2839V33.0098H54.3733V31.4213H54.2838C54.0999 31.7793 53.8538 32.095 53.5455 32.3684C53.2373 32.6369 52.8669 32.8482 52.4344 33.0023C52.0019 33.1515 51.5022 33.226 50.9355 33.226ZM51.8453 31.0336C52.3126 31.0336 52.7252 30.9416 53.0832 30.7576C53.4411 30.5687 53.722 30.3152 53.9259 29.997C54.1297 29.6788 54.2316 29.3184 54.2316 28.9157V27.7001C54.1322 27.7647 53.9955 27.8244 53.8215 27.8791C53.6524 27.9288 53.461 27.976 53.2472 28.0208C53.0335 28.0605 52.8197 28.0978 52.6059 28.1326C52.3921 28.1625 52.1982 28.1898 52.0242 28.2147C51.6514 28.2694 51.3257 28.3564 51.0473 28.4757C50.7689 28.595 50.5526 28.7566 50.3985 28.9604C50.2444 29.1593 50.1673 29.4078 50.1673 29.7061C50.1673 30.1387 50.324 30.4693 50.6372 30.698C50.9553 30.9217 51.358 31.0336 51.8453 31.0336ZM65.9434 21.5552V23.9416H59.0454V21.5552H65.9434ZM60.6114 18.8109H63.7883V29.4899C63.7883 29.7832 63.833 30.0119 63.9225 30.176C64.012 30.335 64.1363 30.4469 64.2954 30.5115C64.4594 30.5762 64.6483 30.6085 64.8621 30.6085C65.0113 30.6085 65.1604 30.5961 65.3096 30.5712C65.4587 30.5414 65.5731 30.519 65.6526 30.5041L66.1523 32.8681C65.9932 32.9178 65.7694 32.975 65.4811 33.0396C65.1927 33.1092 64.8422 33.1515 64.4296 33.1664C63.664 33.1962 62.9928 33.0943 62.4161 32.8606C61.8444 32.627 61.3994 32.264 61.0812 31.7718C60.7631 31.2797 60.6064 30.6582 60.6114 29.9075V18.8109ZM73.11 33.2335C71.9317 33.2335 70.9175 32.9949 70.0674 32.5176C69.2222 32.0353 68.5709 31.3542 68.1135 30.4743C67.6562 29.5893 67.4275 28.5428 67.4275 27.3347C67.4275 26.1564 67.6562 25.1223 68.1135 24.2324C68.5709 23.3425 69.2148 22.649 70.045 22.1518C70.8802 21.6547 71.8596 21.4061 72.9832 21.4061C73.7389 21.4061 74.4424 21.5279 75.0937 21.7715C75.7499 22.0101 76.3216 22.3706 76.8089 22.8528C77.301 23.335 77.6839 23.9416 77.9573 24.6724C78.2307 25.3983 78.3675 26.2484 78.3675 27.2228V28.0953H68.6952V26.1266H75.377C75.377 25.6692 75.2776 25.264 75.0787 24.911C74.8799 24.5581 74.604 24.2821 74.251 24.0833C73.903 23.8794 73.4978 23.7775 73.0354 23.7775C72.5532 23.7775 72.1256 23.8894 71.7528 24.1131C71.3849 24.3319 71.0965 24.6277 70.8877 25.0005C70.6789 25.3684 70.572 25.7786 70.567 26.231V28.1028C70.567 28.6696 70.6714 29.1593 70.8802 29.5719C71.094 29.9846 71.3948 30.3027 71.7826 30.5265C72.1704 30.7502 72.6302 30.862 73.1622 30.862C73.5152 30.862 73.8383 30.8123 74.1317 30.7129C74.425 30.6135 74.676 30.4643 74.8849 30.2654C75.0937 30.0666 75.2528 29.823 75.3621 29.5346L78.3003 29.7285C78.1512 30.4345 77.8454 31.051 77.3831 31.5779C76.9257 32.1 76.3341 32.5076 75.6082 32.801C74.8873 33.0893 74.0546 33.2335 73.11 33.2335Z" fill="white"/>
<path d="M94 25.5098L100 31.5098L110 19.5098" stroke="white" stroke-width="2" stroke-linecap="round" stroke-linejoin="round"/>
</svg>
