<svg width="83" height="61" viewBox="0 0 83 61" fill="none" xmlns="http://www.w3.org/2000/svg">
<rect width="83" height="61" rx="10" fill="#2A3647"/>
<path d="M25.3622 30.3636C25.3622 32.0291 25.0465 33.446 24.4151 34.6143C23.7887 35.7827 22.9336 36.6751 21.8498 37.2915C20.771 37.9031 19.5579 38.2088 18.2106 38.2088C16.8533 38.2088 15.6353 37.9006 14.5565 37.2841C13.4776 36.6676 12.625 35.7752 11.9986 34.6069C11.3722 33.4386 11.0589 32.0241 11.0589 30.3636C11.0589 28.6982 11.3722 27.2812 11.9986 26.1129C12.625 24.9446 13.4776 24.0547 14.5565 23.4432C15.6353 22.8267 16.8533 22.5185 18.2106 22.5185C19.5579 22.5185 20.771 22.8267 21.8498 23.4432C22.9336 24.0547 23.7887 24.9446 24.4151 26.1129C25.0465 27.2812 25.3622 28.6982 25.3622 30.3636ZM22.0884 30.3636C22.0884 29.2848 21.9268 28.375 21.6037 27.6342C21.2855 26.8935 20.8356 26.3317 20.2539 25.9489C19.6722 25.5661 18.9911 25.3746 18.2106 25.3746C17.43 25.3746 16.7489 25.5661 16.1673 25.9489C15.5856 26.3317 15.1332 26.8935 14.81 27.6342C14.4918 28.375 14.3327 29.2848 14.3327 30.3636C14.3327 31.4425 14.4918 32.3523 14.81 33.093C15.1332 33.8338 15.5856 34.3956 16.1673 34.7784C16.7489 35.1612 17.43 35.3526 18.2106 35.3526C18.9911 35.3526 19.6722 35.1612 20.2539 34.7784C20.8356 34.3956 21.2855 33.8338 21.6037 33.093C21.9268 32.3523 22.0884 31.4425 22.0884 30.3636ZM30.5731 34.7038L30.5805 30.8931H31.0429L34.7119 26.5455H38.3586L33.4292 32.3026H32.676L30.5731 34.7038ZM27.6945 38V22.7273H30.8714V38H27.6945ZM34.8536 38L31.4829 33.011L33.6008 30.7663L38.5748 38H34.8536Z" fill="white"/>
<path d="M53 30.5L59 36.5L69 24.5" stroke="white" stroke-width="2" stroke-linecap="round" stroke-linejoin="round"/>
</svg>
