<svg width="30" height="30" viewBox="0 0 30 30" fill="none" xmlns="http://www.w3.org/2000/svg">
<path d="M9.58333 23.8H20.4167V23.525C19.6583 22.8833 18.8188 22.4023 17.8979 22.0818C16.9771 21.7606 16.0111 21.6 15 21.6C13.9889 21.6 13.0229 21.7606 12.1021 22.0818C11.1813 22.4023 10.3417 22.8833 9.58333 23.525V23.8ZM7.41667 22.535C8.39167 21.5633 9.52483 20.7977 10.8162 20.2382C12.1068 19.6794 13.5014 19.4 15 19.4C16.4986 19.4 17.8936 19.6794 19.1849 20.2382C20.4755 20.7977 21.6083 21.5633 22.5833 22.535V8.4H7.41667V22.535ZM15 17.2C13.9528 17.2 13.059 16.8242 12.3187 16.0725C11.5785 15.3208 11.2083 14.4133 11.2083 13.35C11.2083 12.2867 11.5785 11.3792 12.3187 10.6275C13.059 9.87583 13.9528 9.5 15 9.5C16.0472 9.5 16.941 9.87583 17.6813 10.6275C18.4215 11.3792 18.7917 12.2867 18.7917 13.35C18.7917 14.4133 18.4215 15.3208 17.6813 16.0725C16.941 16.8242 16.0472 17.2 15 17.2ZM15 15C15.4514 15 15.8349 14.8394 16.1505 14.5182C16.4668 14.1977 16.625 13.8083 16.625 13.35C16.625 12.8917 16.4668 12.5023 16.1505 12.1818C15.8349 11.8606 15.4514 11.7 15 11.7C14.5486 11.7 14.1651 11.8606 13.8495 12.1818C13.5332 12.5023 13.375 12.8917 13.375 13.35C13.375 13.8083 13.5332 14.1977 13.8495 14.5182C14.1651 14.8394 14.5486 15 15 15ZM6.25 26C5.69772 26 5.25 25.5523 5.25 25V7.2C5.25 6.64772 5.69772 6.2 6.25 6.2H8.5V5C8.5 4.44772 8.94772 4 9.5 4H9.66667C10.219 4 10.6667 4.44772 10.6667 5V6.2H19.3333V5C19.3333 4.44772 19.781 4 20.3333 4H20.5C21.0523 4 21.5 4.44772 21.5 5V6.2H23.75C24.3023 6.2 24.75 6.64772 24.75 7.2V25C24.75 25.5523 24.3023 26 23.75 26H6.25Z" fill="black"/>
</svg>
