<svg width="144" height="59" viewBox="0 0 144 59" fill="none" xmlns="http://www.w3.org/2000/svg">
<g filter="url(#filter0_d_156_955)">
<rect x="4" y="4" width="136" height="51" rx="10" fill="white"/>
<path d="M37.8494 37V21.7273H39.6989V35.3594H46.7983V37H37.8494ZM54.0767 37.2386C53.0426 37.2386 52.1353 36.9925 51.3548 36.5004C50.5792 36.0082 49.9727 35.3196 49.5352 34.4347C49.1026 33.5497 48.8864 32.5156 48.8864 31.3324C48.8864 30.1392 49.1026 29.0977 49.5352 28.2077C49.9727 27.3178 50.5792 26.6268 51.3548 26.1346C52.1353 25.6424 53.0426 25.3963 54.0767 25.3963C55.1108 25.3963 56.0156 25.6424 56.7912 26.1346C57.5717 26.6268 58.1783 27.3178 58.6108 28.2077C59.0483 29.0977 59.267 30.1392 59.267 31.3324C59.267 32.5156 59.0483 33.5497 58.6108 34.4347C58.1783 35.3196 57.5717 36.0082 56.7912 36.5004C56.0156 36.9925 55.1108 37.2386 54.0767 37.2386ZM54.0767 35.6577C54.8622 35.6577 55.5085 35.4563 56.0156 35.0536C56.5227 34.6509 56.8981 34.1214 57.1417 33.4652C57.3853 32.8089 57.5071 32.098 57.5071 31.3324C57.5071 30.5668 57.3853 29.8533 57.1417 29.1921C56.8981 28.5309 56.5227 27.9964 56.0156 27.5888C55.5085 27.1811 54.8622 26.9773 54.0767 26.9773C53.2912 26.9773 52.6449 27.1811 52.1378 27.5888C51.6307 27.9964 51.2553 28.5309 51.0117 29.1921C50.7681 29.8533 50.6463 30.5668 50.6463 31.3324C50.6463 32.098 50.7681 32.8089 51.0117 33.4652C51.2553 34.1214 51.6307 34.6509 52.1378 35.0536C52.6449 35.4563 53.2912 35.6577 54.0767 35.6577ZM64.1591 37L60.669 25.5455H62.5185L64.9943 34.3153H65.1136L67.5597 25.5455H69.4389L71.8551 34.2855H71.9744L74.4503 25.5455H76.2997L72.8097 37H71.0795L68.5739 28.2003H68.3949L65.8892 37H64.1591Z" fill="black"/>
<path d="M98 31.0061C97.7654 31.0065 97.5369 30.9317 97.348 30.7926L88.4449 24.2229C88.3291 24.1373 88.2312 24.0298 88.157 23.9065C88.0827 23.7831 88.0335 23.6464 88.0121 23.504C87.969 23.2166 88.0419 22.9237 88.2148 22.6899C88.3877 22.4562 88.6465 22.3006 88.9342 22.2575C89.2219 22.2144 89.5149 22.2872 89.7489 22.46L98 28.5425L106.251 22.46C106.367 22.3744 106.499 22.3125 106.638 22.2778C106.778 22.243 106.923 22.2361 107.066 22.2575C107.208 22.2788 107.345 22.328 107.469 22.4022C107.592 22.4764 107.7 22.5742 107.785 22.6899C107.871 22.8057 107.933 22.9372 107.968 23.0768C108.002 23.2165 108.009 23.3617 107.988 23.504C107.966 23.6464 107.917 23.7831 107.843 23.9065C107.769 24.0298 107.671 24.1373 107.555 24.2229L98.652 30.7926C98.4631 30.9317 98.2346 31.0065 98 31.0061Z" fill="#7AE229"/>
<path d="M98 36.7547C97.7654 36.7551 97.5369 36.6802 97.348 36.5412L88.4449 29.9714C88.211 29.7986 88.0553 29.5401 88.0121 29.2526C87.969 28.9651 88.0419 28.6723 88.2148 28.4385C88.3877 28.2047 88.6465 28.0491 88.9342 28.006C89.2219 27.9629 89.5149 28.0358 89.7489 28.2085L98 34.291L106.251 28.2085C106.485 28.0358 106.778 27.9629 107.066 28.006C107.354 28.0491 107.612 28.2047 107.785 28.4385C107.958 28.6723 108.031 28.9651 107.988 29.2526C107.945 29.5401 107.789 29.7986 107.555 29.9714L98.652 36.5412C98.4631 36.6802 98.2346 36.7551 98 36.7547Z" fill="#7AE229"/>
</g>
<defs>
<filter id="filter0_d_156_955" x="0" y="0" width="144" height="59" filterUnits="userSpaceOnUse" color-interpolation-filters="sRGB">
<feFlood flood-opacity="0" result="BackgroundImageFix"/>
<feColorMatrix in="SourceAlpha" type="matrix" values="0 0 0 0 0 0 0 0 0 0 0 0 0 0 0 0 0 0 127 0" result="hardAlpha"/>
<feOffset/>
<feGaussianBlur stdDeviation="2"/>
<feColorMatrix type="matrix" values="0 0 0 0 0 0 0 0 0 0 0 0 0 0 0 0 0 0 0.1 0"/>
<feBlend mode="normal" in2="BackgroundImageFix" result="effect1_dropShadow_156_955"/>
<feBlend mode="normal" in="SourceGraphic" in2="effect1_dropShadow_156_955" result="shape"/>
</filter>
</defs>
</svg>
