<svg width="149" height="69" viewBox="0 0 149 69" fill="none" xmlns="http://www.w3.org/2000/svg">
<g filter="url(#filter0_d_156_999)">
<rect x="4" width="141" height="61" rx="10" fill="white"/>
<path d="M40.3494 38V22.7273H42.1989V36.3594H49.2983V38H40.3494ZM56.5767 38.2386C55.5426 38.2386 54.6353 37.9925 53.8548 37.5004C53.0792 37.0082 52.4727 36.3196 52.0352 35.4347C51.6026 34.5497 51.3864 33.5156 51.3864 32.3324C51.3864 31.1392 51.6026 30.0977 52.0352 29.2077C52.4727 28.3178 53.0792 27.6268 53.8548 27.1346C54.6353 26.6424 55.5426 26.3963 56.5767 26.3963C57.6108 26.3963 58.5156 26.6424 59.2912 27.1346C60.0717 27.6268 60.6783 28.3178 61.1108 29.2077C61.5483 30.0977 61.767 31.1392 61.767 32.3324C61.767 33.5156 61.5483 34.5497 61.1108 35.4347C60.6783 36.3196 60.0717 37.0082 59.2912 37.5004C58.5156 37.9925 57.6108 38.2386 56.5767 38.2386ZM56.5767 36.6577C57.3622 36.6577 58.0085 36.4563 58.5156 36.0536C59.0227 35.6509 59.3981 35.1214 59.6417 34.4652C59.8853 33.8089 60.0071 33.098 60.0071 32.3324C60.0071 31.5668 59.8853 30.8533 59.6417 30.1921C59.3981 29.5309 59.0227 28.9964 58.5156 28.5888C58.0085 28.1811 57.3622 27.9773 56.5767 27.9773C55.7912 27.9773 55.1449 28.1811 54.6378 28.5888C54.1307 28.9964 53.7553 29.5309 53.5117 30.1921C53.2681 30.8533 53.1463 31.5668 53.1463 32.3324C53.1463 33.098 53.2681 33.8089 53.5117 34.4652C53.7553 35.1214 54.1307 35.6509 54.6378 36.0536C55.1449 36.4563 55.7912 36.6577 56.5767 36.6577ZM66.6591 38L63.169 26.5455H65.0185L67.4943 35.3153H67.6136L70.0597 26.5455H71.9389L74.3551 35.2855H74.4744L76.9503 26.5455H78.7997L75.3097 38H73.5795L71.0739 29.2003H70.8949L68.3892 38H66.6591Z" fill="black"/>
<path d="M100.5 32.0061C100.265 32.0065 100.037 31.9317 99.848 31.7926L90.9449 25.2229C90.8291 25.1373 90.7312 25.0298 90.657 24.9065C90.5827 24.7831 90.5335 24.6464 90.5121 24.504C90.469 24.2166 90.5419 23.9237 90.7148 23.6899C90.8877 23.4562 91.1465 23.3006 91.4342 23.2575C91.7219 23.2144 92.0149 23.2872 92.2489 23.46L100.5 29.5425L108.751 23.46C108.867 23.3744 108.999 23.3125 109.138 23.2778C109.278 23.243 109.423 23.2361 109.566 23.2575C109.708 23.2788 109.845 23.328 109.969 23.4022C110.092 23.4764 110.2 23.5742 110.285 23.6899C110.371 23.8057 110.433 23.9372 110.468 24.0768C110.502 24.2165 110.509 24.3617 110.488 24.504C110.466 24.6464 110.417 24.7831 110.343 24.9065C110.269 25.0298 110.171 25.1373 110.055 25.2229L101.152 31.7926C100.963 31.9317 100.735 32.0065 100.5 32.0061Z" fill="#7AE229"/>
<path d="M100.5 37.7547C100.265 37.7551 100.037 37.6802 99.848 37.5412L90.9449 30.9714C90.711 30.7986 90.5553 30.5401 90.5121 30.2526C90.469 29.9651 90.5419 29.6723 90.7148 29.4385C90.8877 29.2047 91.1465 29.0491 91.4342 29.006C91.7219 28.9629 92.0149 29.0358 92.2489 29.2085L100.5 35.291L108.751 29.2085C108.985 29.0358 109.278 28.9629 109.566 29.006C109.854 29.0491 110.112 29.2047 110.285 29.4385C110.458 29.6723 110.531 29.9651 110.488 30.2526C110.445 30.5401 110.289 30.7986 110.055 30.9714L101.152 37.5412C100.963 37.6802 100.735 37.7551 100.5 37.7547Z" fill="#7AE229"/>
</g>
<defs>
<filter id="filter0_d_156_999" x="0" y="0" width="149" height="69" filterUnits="userSpaceOnUse" color-interpolation-filters="sRGB">
<feFlood flood-opacity="0" result="BackgroundImageFix"/>
<feColorMatrix in="SourceAlpha" type="matrix" values="0 0 0 0 0 0 0 0 0 0 0 0 0 0 0 0 0 0 127 0" result="hardAlpha"/>
<feOffset dy="4"/>
<feGaussianBlur stdDeviation="2"/>
<feComposite in2="hardAlpha" operator="out"/>
<feColorMatrix type="matrix" values="0 0 0 0 0 0 0 0 0 0 0 0 0 0 0 0 0 0 0.25 0"/>
<feBlend mode="normal" in2="BackgroundImageFix" result="effect1_dropShadow_156_999"/>
<feBlend mode="normal" in="SourceGraphic" in2="effect1_dropShadow_156_999" result="shape"/>
</filter>
</defs>
</svg>
