<svg width="144" height="59" viewBox="0 0 144 59" fill="none" xmlns="http://www.w3.org/2000/svg">
<g filter="url(#filter0_d_156_1065)">
<rect x="4" width="136" height="51" rx="10" fill="#7AE229"/>
<path d="M36.8274 33V17.7273H40.0565V30.3377H46.604V33H36.8274ZM53.8582 33.2237C52.6998 33.2237 51.6981 32.9776 50.8529 32.4854C50.0127 31.9883 49.3639 31.2972 48.9065 30.4123C48.4491 29.5224 48.2204 28.4908 48.2204 27.3175C48.2204 26.1342 48.4491 25.1001 48.9065 24.2152C49.3639 23.3253 50.0127 22.6342 50.8529 22.142C51.6981 21.6449 52.6998 21.3963 53.8582 21.3963C55.0166 21.3963 56.0159 21.6449 56.8561 22.142C57.7013 22.6342 58.3525 23.3253 58.8099 24.2152C59.2673 25.1001 59.496 26.1342 59.496 27.3175C59.496 28.4908 59.2673 29.5224 58.8099 30.4123C58.3525 31.2972 57.7013 31.9883 56.8561 32.4854C56.0159 32.9776 55.0166 33.2237 53.8582 33.2237ZM53.8731 30.7628C54.4001 30.7628 54.8401 30.6136 55.1931 30.3153C55.5461 30.0121 55.8121 29.5994 55.991 29.0774C56.175 28.5554 56.267 27.9613 56.267 27.2951C56.267 26.6289 56.175 26.0348 55.991 25.5128C55.8121 24.9908 55.5461 24.5781 55.1931 24.2749C54.8401 23.9716 54.4001 23.82 53.8731 23.82C53.3412 23.82 52.8937 23.9716 52.5308 24.2749C52.1729 24.5781 51.9019 24.9908 51.718 25.5128C51.539 26.0348 51.4495 26.6289 51.4495 27.2951C51.4495 27.9613 51.539 28.5554 51.718 29.0774C51.9019 29.5994 52.1729 30.0121 52.5308 30.3153C52.8937 30.6136 53.3412 30.7628 53.8731 30.7628ZM63.5342 33L60.417 21.5455H63.6311L65.406 29.2415H65.5104L67.3598 21.5455H70.5143L72.3936 29.1967H72.4905L74.2355 21.5455H77.4422L74.3325 33H70.9692L69.0004 25.7962H68.8588L66.89 33H63.5342Z" fill="white"/>
<path d="M98.5 27.0061C98.2654 27.0065 98.0369 26.9317 97.848 26.7926L88.9449 20.2229C88.8291 20.1373 88.7312 20.0298 88.657 19.9065C88.5827 19.7831 88.5335 19.6464 88.5121 19.504C88.469 19.2166 88.5419 18.9237 88.7148 18.6899C88.8877 18.4562 89.1465 18.3006 89.4342 18.2575C89.7219 18.2144 90.0149 18.2872 90.2489 18.46L98.5 24.5425L106.751 18.46C106.867 18.3744 106.999 18.3125 107.138 18.2778C107.278 18.243 107.423 18.2361 107.566 18.2575C107.708 18.2788 107.845 18.328 107.969 18.4022C108.092 18.4764 108.2 18.5742 108.285 18.6899C108.371 18.8057 108.433 18.9372 108.468 19.0768C108.502 19.2165 108.509 19.3617 108.488 19.504C108.466 19.6464 108.417 19.7831 108.343 19.9065C108.269 20.0298 108.171 20.1373 108.055 20.2229L99.152 26.7926C98.9631 26.9317 98.7346 27.0065 98.5 27.0061Z" fill="white"/>
<path d="M98.5 32.7547C98.2654 32.7551 98.0369 32.6802 97.848 32.5412L88.9449 25.9714C88.711 25.7986 88.5553 25.5401 88.5121 25.2526C88.469 24.9651 88.5419 24.6723 88.7148 24.4385C88.8877 24.2047 89.1465 24.0491 89.4342 24.006C89.7219 23.9629 90.0149 24.0358 90.2489 24.2085L98.5 30.291L106.751 24.2085C106.985 24.0358 107.278 23.9629 107.566 24.006C107.854 24.0491 108.112 24.2047 108.285 24.4385C108.458 24.6723 108.531 24.9651 108.488 25.2526C108.445 25.5401 108.289 25.7986 108.055 25.9714L99.152 32.5412C98.9631 32.6802 98.7346 32.7551 98.5 32.7547Z" fill="white"/>
</g>
<defs>
<filter id="filter0_d_156_1065" x="0" y="0" width="144" height="59" filterUnits="userSpaceOnUse" color-interpolation-filters="sRGB">
<feFlood flood-opacity="0" result="BackgroundImageFix"/>
<feColorMatrix in="SourceAlpha" type="matrix" values="0 0 0 0 0 0 0 0 0 0 0 0 0 0 0 0 0 0 127 0" result="hardAlpha"/>
<feOffset dy="4"/>
<feGaussianBlur stdDeviation="2"/>
<feComposite in2="hardAlpha" operator="out"/>
<feColorMatrix type="matrix" values="0 0 0 0 0 0 0 0 0 0 0 0 0 0 0 0 0 0 0.25 0"/>
<feBlend mode="normal" in2="BackgroundImageFix" result="effect1_dropShadow_156_1065"/>
<feBlend mode="normal" in="SourceGraphic" in2="effect1_dropShadow_156_1065" result="shape"/>
</filter>
</defs>
</svg>
