<svg width="143" height="69" viewBox="0 0 143 69" fill="none" xmlns="http://www.w3.org/2000/svg">
<g filter="url(#filter0_d_156_970)">
<rect x="4" width="135" height="61" rx="10" fill="white"/>
<path d="M18.3494 22.7273H20.5568L25.7472 35.4048H25.9261L31.1165 22.7273H33.3239V38H31.5938V26.3963H31.4446L26.6719 38H25.0014L20.2287 26.3963H20.0795V38H18.3494V22.7273ZM41.596 38.2386C40.4923 38.2386 39.5402 37.995 38.7398 37.5078C37.9443 37.0156 37.3303 36.3295 36.8978 35.4496C36.4703 34.5646 36.2565 33.5355 36.2565 32.3622C36.2565 31.1889 36.4703 30.1548 36.8978 29.2599C37.3303 28.3601 37.9319 27.6591 38.7025 27.157C39.4781 26.6499 40.3829 26.3963 41.417 26.3963C42.0136 26.3963 42.6027 26.4957 43.1844 26.6946C43.7661 26.8935 44.2955 27.2166 44.7728 27.6641C45.2501 28.1065 45.6304 28.6932 45.9138 29.424C46.1972 30.1548 46.3389 31.0547 46.3389 32.1236V32.8693H37.5093V31.348H44.5491C44.5491 30.7017 44.4198 30.125 44.1613 29.6179C43.9078 29.1108 43.5448 28.7106 43.0725 28.4173C42.6052 28.1239 42.0534 27.9773 41.417 27.9773C40.716 27.9773 40.1095 28.1513 39.5974 28.4993C39.0903 28.8423 38.7 29.2898 38.4266 29.8416C38.1531 30.3935 38.0164 30.9851 38.0164 31.6165V32.6307C38.0164 33.4957 38.1656 34.229 38.4639 34.8306C38.7671 35.4272 39.1872 35.8821 39.7242 36.1953C40.2611 36.5036 40.885 36.6577 41.596 36.6577C42.0583 36.6577 42.4759 36.593 42.8488 36.4638C43.2267 36.3295 43.5523 36.1307 43.8257 35.8672C44.0992 35.5987 44.3105 35.2656 44.4596 34.8679L46.1599 35.3452C45.9809 35.9219 45.6801 36.429 45.2575 36.8665C44.835 37.299 44.3129 37.6371 43.6915 37.8807C43.07 38.1193 42.3715 38.2386 41.596 38.2386ZM53.3414 38.2386C52.3868 38.2386 51.5441 37.9975 50.8133 37.5153C50.0825 37.0281 49.5107 36.342 49.0981 35.457C48.6855 34.5671 48.4791 33.5156 48.4791 32.3026C48.4791 31.0994 48.6855 30.0554 49.0981 29.1705C49.5107 28.2855 50.085 27.6019 50.8208 27.1197C51.5566 26.6374 52.4067 26.3963 53.3712 26.3963C54.1169 26.3963 54.7061 26.5206 55.1386 26.7692C55.5761 27.0128 55.9092 27.2912 56.1379 27.6044C56.3715 27.9126 56.553 28.1662 56.6823 28.3651H56.8314V22.7273H58.5914V38H56.8911V36.2401H56.6823C56.553 36.4489 56.3691 36.7124 56.1304 37.0305C55.8918 37.3437 55.5512 37.6246 55.1088 37.8732C54.6663 38.1168 54.0771 38.2386 53.3414 38.2386ZM53.58 36.6577C54.286 36.6577 54.8825 36.4737 55.3698 36.1058C55.857 35.733 56.2274 35.2184 56.4809 34.5621C56.7345 33.9009 56.8612 33.1378 56.8612 32.2727C56.8612 31.4176 56.7369 30.6694 56.4884 30.0281C56.2398 29.3817 55.8719 28.8796 55.3847 28.5217C54.8975 28.1587 54.2959 27.9773 53.58 27.9773C52.8343 27.9773 52.2128 28.1687 51.7156 28.5515C51.2235 28.9293 50.8531 29.4439 50.6045 30.0952C50.3609 30.7415 50.2391 31.4673 50.2391 32.2727C50.2391 33.0881 50.3634 33.8288 50.6119 34.495C50.8655 35.1562 51.2384 35.6832 51.7306 36.076C52.2277 36.4638 52.8442 36.6577 53.58 36.6577ZM62.059 38V26.5455H63.819V38H62.059ZM62.9539 24.6364C62.6109 24.6364 62.3151 24.5195 62.0665 24.2859C61.8229 24.0522 61.7011 23.7713 61.7011 23.4432C61.7011 23.1151 61.8229 22.8342 62.0665 22.6005C62.3151 22.3668 62.6109 22.25 62.9539 22.25C63.297 22.25 63.5903 22.3668 63.8339 22.6005C64.0825 22.8342 64.2068 23.1151 64.2068 23.4432C64.2068 23.7713 64.0825 24.0522 63.8339 24.2859C63.5903 24.5195 63.297 24.6364 62.9539 24.6364ZM74.2612 33.3168V26.5455H76.0211V38H74.2612V36.0611H74.1419C73.8734 36.6428 73.4558 37.1374 72.889 37.5451C72.3223 37.9478 71.6064 38.1491 70.7413 38.1491C70.0254 38.1491 69.389 37.9925 68.8322 37.6793C68.2754 37.3612 67.8379 36.8839 67.5197 36.2475C67.2015 35.6062 67.0424 34.7983 67.0424 33.8239V26.5455H68.8024V33.7045C68.8024 34.5398 69.036 35.206 69.5034 35.7031C69.9757 36.2003 70.5772 36.4489 71.3081 36.4489C71.7456 36.4489 72.1905 36.337 72.6429 36.1133C73.1003 35.8896 73.4831 35.5465 73.7914 35.0842C74.1046 34.6218 74.2612 34.0327 74.2612 33.3168ZM79.2446 38V26.5455H80.9449V28.3352H81.094C81.3327 27.7237 81.718 27.2489 82.2499 26.9109C82.7819 26.5678 83.4207 26.3963 84.1665 26.3963C84.9221 26.3963 85.551 26.5678 86.0532 26.9109C86.5603 27.2489 86.9555 27.7237 87.2389 28.3352H87.3582C87.6515 27.7436 88.0915 27.2738 88.6782 26.9258C89.2648 26.5728 89.9683 26.3963 90.7886 26.3963C91.8128 26.3963 92.6505 26.717 93.3018 27.3583C93.953 27.9947 94.2787 28.9865 94.2787 30.3338V38H92.5187V30.3338C92.5187 29.4886 92.2876 28.8846 91.8252 28.5217C91.3628 28.1587 90.8184 27.9773 90.192 27.9773C89.3866 27.9773 88.7627 28.2209 88.3202 28.7081C87.8778 29.1903 87.6565 29.8018 87.6565 30.5426V38H85.8667V30.1548C85.8667 29.5036 85.6555 28.979 85.2329 28.5813C84.8103 28.1786 84.2659 27.9773 83.5997 27.9773C83.1423 27.9773 82.7148 28.0991 82.317 28.3427C81.9243 28.5863 81.6061 28.9244 81.3625 29.3569C81.1238 29.7844 81.0045 30.2791 81.0045 30.8409V38H79.2446Z" fill="black"/>
<g clip-path="url(#clip0_156_970)">
<path d="M125.404 34.2255H107.596C107.305 34.2255 107.026 34.1092 106.821 33.9022C106.615 33.6952 106.5 33.4144 106.5 33.1217C106.5 32.8289 106.615 32.5481 106.821 32.3411C107.026 32.1341 107.305 32.0178 107.596 32.0178H125.404C125.695 32.0178 125.974 32.1341 126.179 32.3411C126.385 32.5481 126.5 32.8289 126.5 33.1217C126.5 33.4144 126.385 33.6952 126.179 33.9022C125.974 34.1092 125.695 34.2255 125.404 34.2255Z" fill="#FFA800"/>
<path d="M125.404 28.9822H107.596C107.305 28.9822 107.026 28.8659 106.821 28.6589C106.615 28.4519 106.5 28.1711 106.5 27.8784C106.5 27.5856 106.615 27.3049 106.821 27.0978C107.026 26.8908 107.305 26.7745 107.596 26.7745H125.404C125.695 26.7745 125.974 26.8908 126.179 27.0978C126.385 27.3049 126.5 27.5856 126.5 27.8784C126.5 28.1711 126.385 28.4519 126.179 28.6589C125.974 28.8659 125.695 28.9822 125.404 28.9822Z" fill="#FFA800"/>
</g>
</g>
<defs>
<filter id="filter0_d_156_970" x="0" y="0" width="143" height="69" filterUnits="userSpaceOnUse" color-interpolation-filters="sRGB">
<feFlood flood-opacity="0" result="BackgroundImageFix"/>
<feColorMatrix in="SourceAlpha" type="matrix" values="0 0 0 0 0 0 0 0 0 0 0 0 0 0 0 0 0 0 127 0" result="hardAlpha"/>
<feOffset dy="4"/>
<feGaussianBlur stdDeviation="2"/>
<feComposite in2="hardAlpha" operator="out"/>
<feColorMatrix type="matrix" values="0 0 0 0 0 0 0 0 0 0 0 0 0 0 0 0 0 0 0.25 0"/>
<feBlend mode="normal" in2="BackgroundImageFix" result="effect1_dropShadow_156_970"/>
<feBlend mode="normal" in="SourceGraphic" in2="effect1_dropShadow_156_970" result="shape"/>
</filter>
<clipPath id="clip0_156_970">
<rect width="20" height="7.45098" fill="white" transform="translate(106.5 26.7745)"/>
</clipPath>
</defs>
</svg>
