<svg width="142" height="59" viewBox="0 0 142 59" fill="none" xmlns="http://www.w3.org/2000/svg">
<g filter="url(#filter0_d_156_1036)">
<rect x="4" width="134" height="51" rx="10" fill="#FFA800"/>
<path d="M15.3274 17.7273H19.3097L23.5156 27.9886H23.6946L27.9006 17.7273H31.8828V33H28.7507V23.0593H28.6239L24.6715 32.9254H22.5387L18.5863 23.022H18.4595V33H15.3274V17.7273ZM39.7037 33.2237C38.5255 33.2237 37.5113 32.9851 36.6611 32.5078C35.816 32.0256 35.1647 31.3445 34.7073 30.4645C34.2499 29.5795 34.0212 28.533 34.0212 27.3249C34.0212 26.1467 34.2499 25.1126 34.7073 24.2227C35.1647 23.3327 35.8085 22.6392 36.6388 22.142C37.474 21.6449 38.4534 21.3963 39.577 21.3963C40.3327 21.3963 41.0361 21.5181 41.6874 21.7617C42.3437 22.0004 42.9154 22.3608 43.4026 22.843C43.8948 23.3253 44.2776 23.9318 44.551 24.6626C44.8245 25.3885 44.9612 26.2386 44.9612 27.2131V28.0856H35.289V26.1168H41.9708C41.9708 25.6594 41.8714 25.2543 41.6725 24.9013C41.4736 24.5483 41.1977 24.2724 40.8447 24.0735C40.4967 23.8697 40.0915 23.7678 39.6292 23.7678C39.1469 23.7678 38.7194 23.8796 38.3465 24.1033C37.9786 24.3221 37.6903 24.6179 37.4814 24.9908C37.2726 25.3587 37.1657 25.7688 37.1608 26.2212V28.093C37.1608 28.6598 37.2652 29.1495 37.474 29.5621C37.6878 29.9748 37.9885 30.293 38.3763 30.5167C38.7641 30.7404 39.224 30.8523 39.7559 30.8523C40.1089 30.8523 40.4321 30.8026 40.7254 30.7031C41.0187 30.6037 41.2698 30.4545 41.4786 30.2557C41.6874 30.0568 41.8465 29.8132 41.9559 29.5249L44.8941 29.7188C44.7449 30.4247 44.4392 31.0412 43.9768 31.5682C43.5194 32.0902 42.9278 32.4979 42.202 32.7912C41.4811 33.0795 40.6483 33.2237 39.7037 33.2237ZM51.2552 33.1864C50.3852 33.1864 49.5972 32.9627 48.8912 32.5153C48.1903 32.0629 47.6334 31.3991 47.2208 30.5241C46.8131 29.6442 46.6093 28.5653 46.6093 27.2876C46.6093 25.9751 46.8206 24.8839 47.2432 24.0138C47.6657 23.1388 48.2275 22.4851 48.9285 22.0526C49.6345 21.6151 50.4076 21.3963 51.2478 21.3963C51.8891 21.3963 52.4236 21.5057 52.8511 21.7244C53.2836 21.9382 53.6317 22.2067 53.8952 22.5298C54.1636 22.848 54.3675 23.1612 54.5067 23.4695H54.6036V17.7273H57.773V33H54.6409V31.1655H54.5067C54.3575 31.4837 54.1462 31.7994 53.8728 32.1126C53.6043 32.4208 53.2538 32.6768 52.8213 32.8807C52.3937 33.0845 51.8717 33.1864 51.2552 33.1864ZM52.262 30.6584C52.7741 30.6584 53.2066 30.5192 53.5596 30.2408C53.9175 29.9574 54.191 29.5621 54.3799 29.055C54.5738 28.5479 54.6707 27.9538 54.6707 27.2727C54.6707 26.5916 54.5763 26 54.3873 25.4979C54.1984 24.9957 53.925 24.608 53.567 24.3345C53.2091 24.0611 52.7741 23.9244 52.262 23.9244C51.74 23.9244 51.3 24.0661 50.942 24.3494C50.5841 24.6328 50.3131 25.0256 50.1292 25.5277C49.9452 26.0298 49.8532 26.6115 49.8532 27.2727C49.8532 27.9389 49.9452 28.5281 50.1292 29.0401C50.3181 29.5472 50.589 29.945 50.942 30.2333C51.3 30.5167 51.74 30.6584 52.262 30.6584ZM60.3849 33V21.5455H63.5618V33H60.3849ZM61.9808 20.0689C61.5085 20.0689 61.1033 19.9123 60.7653 19.5991C60.4322 19.2809 60.2656 18.9006 60.2656 18.4581C60.2656 18.0206 60.4322 17.6452 60.7653 17.332C61.1033 17.0138 61.5085 16.8548 61.9808 16.8548C62.4531 16.8548 62.8558 17.0138 63.1889 17.332C63.527 17.6452 63.696 18.0206 63.696 18.4581C63.696 18.9006 63.527 19.2809 63.1889 19.5991C62.8558 19.9123 62.4531 20.0689 61.9808 20.0689ZM73.4521 28.1229V21.5455H76.629V33H73.5789V30.9194H73.4596C73.2011 31.5906 72.771 32.13 72.1695 32.5376C71.5729 32.9453 70.8445 33.1491 69.9845 33.1491C69.2188 33.1491 68.5452 32.9751 67.9635 32.6271C67.3818 32.2791 66.9269 31.7844 66.5988 31.1431C66.2757 30.5018 66.1116 29.7337 66.1066 28.8388V21.5455H69.2835V28.272C69.2884 28.9482 69.4699 29.4826 69.8279 29.8754C70.1858 30.2681 70.6656 30.4645 71.2671 30.4645C71.6499 30.4645 72.0079 30.3775 72.341 30.2035C72.6741 30.0245 72.9426 29.761 73.1464 29.413C73.3552 29.065 73.4571 28.6349 73.4521 28.1229ZM79.1701 33V21.5455H82.1978V23.5664H82.332C82.5707 22.8952 82.9684 22.3658 83.5252 21.978C84.082 21.5902 84.7482 21.3963 85.5238 21.3963C86.3093 21.3963 86.978 21.5927 87.5298 21.9854C88.0817 22.3732 88.4496 22.9002 88.6335 23.5664H88.7528C88.9865 22.9102 89.4091 22.3857 90.0206 21.9929C90.6371 21.5952 91.3654 21.3963 92.2056 21.3963C93.2745 21.3963 94.142 21.7369 94.8082 22.418C95.4794 23.0941 95.815 24.0536 95.815 25.2965V33H92.6456V25.9229C92.6456 25.2866 92.4766 24.8093 92.1385 24.4911C91.8004 24.1729 91.3778 24.0138 90.8707 24.0138C90.294 24.0138 89.8441 24.1978 89.521 24.5657C89.1978 24.9286 89.0362 25.4084 89.0362 26.005V33H85.9563V25.8558C85.9563 25.294 85.7947 24.8466 85.4716 24.5135C85.1534 24.1804 84.7333 24.0138 84.2113 24.0138C83.8583 24.0138 83.5401 24.1033 83.2567 24.2823C82.9783 24.4563 82.7571 24.7024 82.593 25.0206C82.429 25.3338 82.3469 25.7017 82.3469 26.1243V33H79.1701Z" fill="white"/>
<g clip-path="url(#clip0_156_1036)">
<path d="M126.904 29.2255H109.096C108.805 29.2255 108.526 29.1092 108.321 28.9022C108.115 28.6952 108 28.4144 108 28.1217C108 27.8289 108.115 27.5481 108.321 27.3411C108.526 27.1341 108.805 27.0178 109.096 27.0178H126.904C127.195 27.0178 127.474 27.1341 127.679 27.3411C127.885 27.5481 128 27.8289 128 28.1217C128 28.4144 127.885 28.6952 127.679 28.9022C127.474 29.1092 127.195 29.2255 126.904 29.2255Z" fill="white"/>
<path d="M126.904 23.9822H109.096C108.805 23.9822 108.526 23.8659 108.321 23.6589C108.115 23.4519 108 23.1711 108 22.8784C108 22.5856 108.115 22.3049 108.321 22.0978C108.526 21.8908 108.805 21.7745 109.096 21.7745H126.904C127.195 21.7745 127.474 21.8908 127.679 22.0978C127.885 22.3049 128 22.5856 128 22.8784C128 23.1711 127.885 23.4519 127.679 23.6589C127.474 23.8659 127.195 23.9822 126.904 23.9822Z" fill="white"/>
</g>
</g>
<defs>
<filter id="filter0_d_156_1036" x="0" y="0" width="142" height="59" filterUnits="userSpaceOnUse" color-interpolation-filters="sRGB">
<feFlood flood-opacity="0" result="BackgroundImageFix"/>
<feColorMatrix in="SourceAlpha" type="matrix" values="0 0 0 0 0 0 0 0 0 0 0 0 0 0 0 0 0 0 127 0" result="hardAlpha"/>
<feOffset dy="4"/>
<feGaussianBlur stdDeviation="2"/>
<feComposite in2="hardAlpha" operator="out"/>
<feColorMatrix type="matrix" values="0 0 0 0 0 0 0 0 0 0 0 0 0 0 0 0 0 0 0.25 0"/>
<feBlend mode="normal" in2="BackgroundImageFix" result="effect1_dropShadow_156_1036"/>
<feBlend mode="normal" in="SourceGraphic" in2="effect1_dropShadow_156_1036" result="shape"/>
</filter>
<clipPath id="clip0_156_1036">
<rect width="20" height="7.45098" fill="white" transform="translate(108 21.7745)"/>
</clipPath>
</defs>
</svg>
