<svg width="138" height="59" viewBox="0 0 138 59" fill="none" xmlns="http://www.w3.org/2000/svg">
<g filter="url(#filter0_d_156_948)">
<rect x="4" y="4" width="130" height="51" rx="10" fill="white"/>
<path d="M15.8494 21.7273H18.0568L23.2472 34.4048H23.4261L28.6165 21.7273H30.8239V37H29.0938V25.3963H28.9446L24.1719 37H22.5014L17.7287 25.3963H17.5795V37H15.8494V21.7273ZM39.096 37.2386C37.9923 37.2386 37.0402 36.995 36.2398 36.5078C35.4443 36.0156 34.8303 35.3295 34.3978 34.4496C33.9703 33.5646 33.7565 32.5355 33.7565 31.3622C33.7565 30.1889 33.9703 29.1548 34.3978 28.2599C34.8303 27.3601 35.4319 26.6591 36.2025 26.157C36.9781 25.6499 37.8829 25.3963 38.917 25.3963C39.5136 25.3963 40.1027 25.4957 40.6844 25.6946C41.2661 25.8935 41.7955 26.2166 42.2728 26.6641C42.7501 27.1065 43.1304 27.6932 43.4138 28.424C43.6972 29.1548 43.8389 30.0547 43.8389 31.1236V31.8693H35.0093V30.348H42.0491C42.0491 29.7017 41.9198 29.125 41.6613 28.6179C41.4078 28.1108 41.0448 27.7106 40.5725 27.4173C40.1052 27.1239 39.5534 26.9773 38.917 26.9773C38.216 26.9773 37.6095 27.1513 37.0974 27.4993C36.5903 27.8423 36.2 28.2898 35.9266 28.8416C35.6531 29.3935 35.5164 29.9851 35.5164 30.6165V31.6307C35.5164 32.4957 35.6656 33.229 35.9639 33.8306C36.2671 34.4272 36.6872 34.8821 37.2242 35.1953C37.7611 35.5036 38.385 35.6577 39.096 35.6577C39.5583 35.6577 39.9759 35.593 40.3488 35.4638C40.7267 35.3295 41.0523 35.1307 41.3257 34.8672C41.5992 34.5987 41.8105 34.2656 41.9596 33.8679L43.6599 34.3452C43.4809 34.9219 43.1801 35.429 42.7575 35.8665C42.335 36.299 41.8129 36.6371 41.1915 36.8807C40.57 37.1193 39.8715 37.2386 39.096 37.2386ZM50.8414 37.2386C49.8868 37.2386 49.0441 36.9975 48.3133 36.5153C47.5825 36.0281 47.0107 35.342 46.5981 34.457C46.1855 33.5671 45.9791 32.5156 45.9791 31.3026C45.9791 30.0994 46.1855 29.0554 46.5981 28.1705C47.0107 27.2855 47.585 26.6019 48.3208 26.1197C49.0566 25.6374 49.9067 25.3963 50.8712 25.3963C51.6169 25.3963 52.2061 25.5206 52.6386 25.7692C53.0761 26.0128 53.4092 26.2912 53.6379 26.6044C53.8715 26.9126 54.053 27.1662 54.1823 27.3651H54.3314V21.7273H56.0914V37H54.3911V35.2401H54.1823C54.053 35.4489 53.8691 35.7124 53.6304 36.0305C53.3918 36.3437 53.0512 36.6246 52.6088 36.8732C52.1663 37.1168 51.5771 37.2386 50.8414 37.2386ZM51.08 35.6577C51.786 35.6577 52.3825 35.4737 52.8698 35.1058C53.357 34.733 53.7274 34.2184 53.9809 33.5621C54.2345 32.9009 54.3612 32.1378 54.3612 31.2727C54.3612 30.4176 54.2369 29.6694 53.9884 29.0281C53.7398 28.3817 53.3719 27.8796 52.8847 27.5217C52.3975 27.1587 51.7959 26.9773 51.08 26.9773C50.3343 26.9773 49.7128 27.1687 49.2156 27.5515C48.7235 27.9293 48.3531 28.4439 48.1045 29.0952C47.8609 29.7415 47.7391 30.4673 47.7391 31.2727C47.7391 32.0881 47.8634 32.8288 48.1119 33.495C48.3655 34.1562 48.7384 34.6832 49.2306 35.076C49.7277 35.4638 50.3442 35.6577 51.08 35.6577ZM59.559 37V25.5455H61.319V37H59.559ZM60.4539 23.6364C60.1109 23.6364 59.8151 23.5195 59.5665 23.2859C59.3229 23.0522 59.2011 22.7713 59.2011 22.4432C59.2011 22.1151 59.3229 21.8342 59.5665 21.6005C59.8151 21.3668 60.1109 21.25 60.4539 21.25C60.797 21.25 61.0903 21.3668 61.3339 21.6005C61.5825 21.8342 61.7068 22.1151 61.7068 22.4432C61.7068 22.7713 61.5825 23.0522 61.3339 23.2859C61.0903 23.5195 60.797 23.6364 60.4539 23.6364ZM71.7612 32.3168V25.5455H73.5211V37H71.7612V35.0611H71.6419C71.3734 35.6428 70.9558 36.1374 70.389 36.5451C69.8223 36.9478 69.1064 37.1491 68.2413 37.1491C67.5254 37.1491 66.889 36.9925 66.3322 36.6793C65.7754 36.3612 65.3379 35.8839 65.0197 35.2475C64.7015 34.6062 64.5424 33.7983 64.5424 32.8239V25.5455H66.3024V32.7045C66.3024 33.5398 66.536 34.206 67.0034 34.7031C67.4757 35.2003 68.0772 35.4489 68.8081 35.4489C69.2456 35.4489 69.6905 35.337 70.1429 35.1133C70.6003 34.8896 70.9831 34.5465 71.2914 34.0842C71.6046 33.6218 71.7612 33.0327 71.7612 32.3168ZM76.7446 37V25.5455H78.4449V27.3352H78.594C78.8327 26.7237 79.218 26.2489 79.7499 25.9109C80.2819 25.5678 80.9207 25.3963 81.6665 25.3963C82.4221 25.3963 83.051 25.5678 83.5532 25.9109C84.0603 26.2489 84.4555 26.7237 84.7389 27.3352H84.8582C85.1515 26.7436 85.5915 26.2738 86.1782 25.9258C86.7648 25.5728 87.4683 25.3963 88.2886 25.3963C89.3128 25.3963 90.1505 25.717 90.8018 26.3583C91.453 26.9947 91.7787 27.9865 91.7787 29.3338V37H90.0187V29.3338C90.0187 28.4886 89.7876 27.8846 89.3252 27.5217C88.8628 27.1587 88.3184 26.9773 87.692 26.9773C86.8866 26.9773 86.2627 27.2209 85.8202 27.7081C85.3778 28.1903 85.1565 28.8018 85.1565 29.5426V37H83.3667V29.1548C83.3667 28.5036 83.1555 27.979 82.7329 27.5813C82.3103 27.1786 81.7659 26.9773 81.0997 26.9773C80.6423 26.9773 80.2148 27.0991 79.817 27.3427C79.4243 27.5863 79.1061 27.9244 78.8625 28.3569C78.6238 28.7844 78.5045 29.2791 78.5045 29.8409V37H76.7446Z" fill="black"/>
<g clip-path="url(#clip0_156_948)">
<path d="M122.904 33.2255H105.096C104.805 33.2255 104.526 33.1092 104.321 32.9022C104.115 32.6952 104 32.4144 104 32.1217C104 31.8289 104.115 31.5481 104.321 31.3411C104.526 31.1341 104.805 31.0178 105.096 31.0178H122.904C123.195 31.0178 123.474 31.1341 123.679 31.3411C123.885 31.5481 124 31.8289 124 32.1217C124 32.4144 123.885 32.6952 123.679 32.9022C123.474 33.1092 123.195 33.2255 122.904 33.2255Z" fill="#FFA800"/>
<path d="M122.904 27.9822H105.096C104.805 27.9822 104.526 27.8659 104.321 27.6589C104.115 27.4519 104 27.1711 104 26.8784C104 26.5856 104.115 26.3049 104.321 26.0978C104.526 25.8908 104.805 25.7745 105.096 25.7745H122.904C123.195 25.7745 123.474 25.8908 123.679 26.0978C123.885 26.3049 124 26.5856 124 26.8784C124 27.1711 123.885 27.4519 123.679 27.6589C123.474 27.8659 123.195 27.9822 122.904 27.9822Z" fill="#FFA800"/>
</g>
</g>
<defs>
<filter id="filter0_d_156_948" x="0" y="0" width="138" height="59" filterUnits="userSpaceOnUse" color-interpolation-filters="sRGB">
<feFlood flood-opacity="0" result="BackgroundImageFix"/>
<feColorMatrix in="SourceAlpha" type="matrix" values="0 0 0 0 0 0 0 0 0 0 0 0 0 0 0 0 0 0 127 0" result="hardAlpha"/>
<feOffset/>
<feGaussianBlur stdDeviation="2"/>
<feColorMatrix type="matrix" values="0 0 0 0 0 0 0 0 0 0 0 0 0 0 0 0 0 0 0.1 0"/>
<feBlend mode="normal" in2="BackgroundImageFix" result="effect1_dropShadow_156_948"/>
<feBlend mode="normal" in="SourceGraphic" in2="effect1_dropShadow_156_948" result="shape"/>
</filter>
<clipPath id="clip0_156_948">
<rect width="20" height="7.45098" fill="white" transform="translate(104 25.7745)"/>
</clipPath>
</defs>
</svg>
