<svg width="144" height="59" viewBox="0 0 144 59" fill="none" xmlns="http://www.w3.org/2000/svg">
<g filter="url(#filter0_d_156_963)">
<rect x="4" y="4" width="136" height="51" rx="10" fill="white"/>
<path d="M34.8722 21.7273H36.7216V31.8395C36.7216 32.8835 36.4755 33.8157 35.9833 34.636C35.4961 35.4513 34.8075 36.0952 33.9176 36.5675C33.0277 37.0348 31.9837 37.2685 30.7855 37.2685C29.5874 37.2685 28.5433 37.0348 27.6534 36.5675C26.7635 36.0952 26.0724 35.4513 25.5803 34.636C25.093 33.8157 24.8494 32.8835 24.8494 31.8395V21.7273H26.6989V31.6903C26.6989 32.4361 26.8629 33.0998 27.1911 33.6815C27.5192 34.2582 27.9865 34.7131 28.593 35.0462C29.2045 35.3743 29.9354 35.5384 30.7855 35.5384C31.6357 35.5384 32.3665 35.3743 32.978 35.0462C33.5895 34.7131 34.0568 34.2582 34.38 33.6815C34.7081 33.0998 34.8722 32.4361 34.8722 31.6903V21.7273ZM40.1762 37V25.5455H41.8765V27.2756H41.9958C42.2046 26.7088 42.5825 26.2489 43.1294 25.896C43.6762 25.543 44.2927 25.3665 44.9788 25.3665C45.108 25.3665 45.2696 25.369 45.4635 25.3739C45.6574 25.3789 45.8041 25.3864 45.9035 25.3963V27.1861C45.8438 27.1712 45.7071 27.1488 45.4933 27.119C45.2845 27.0842 45.0633 27.0668 44.8296 27.0668C44.2728 27.0668 43.7757 27.1836 43.3382 27.4173C42.9056 27.646 42.5626 27.9641 42.309 28.3718C42.0605 28.7745 41.9362 29.2344 41.9362 29.7514V37H40.1762ZM52.2646 41.5341C51.4145 41.5341 50.6837 41.4247 50.0722 41.206C49.4607 40.9922 48.9511 40.7088 48.5434 40.3558C48.1407 40.0078 47.82 39.6349 47.5814 39.2372L48.9834 38.2528C49.1425 38.4616 49.3438 38.7003 49.5874 38.9688C49.8311 39.2422 50.1642 39.4783 50.5867 39.6772C51.0143 39.881 51.5736 39.983 52.2646 39.983C53.1894 39.983 53.9525 39.7592 54.5541 39.3118C55.1556 38.8643 55.4564 38.1634 55.4564 37.2088V34.8821H55.3073C55.178 35.0909 54.9941 35.3494 54.7554 35.6577C54.5218 35.9609 54.1837 36.2319 53.7412 36.4705C53.3037 36.7042 52.7121 36.821 51.9664 36.821C51.0416 36.821 50.2114 36.6023 49.4756 36.1648C48.7448 35.7273 48.1656 35.0909 47.738 34.2557C47.3154 33.4205 47.1041 32.4062 47.1041 31.2131C47.1041 30.0398 47.3105 29.0181 47.7231 28.1481C48.1357 27.2731 48.71 26.5969 49.4458 26.1197C50.1816 25.6374 51.0317 25.3963 51.9962 25.3963C52.7419 25.3963 53.3335 25.5206 53.771 25.7692C54.2135 26.0128 54.5516 26.2912 54.7852 26.6044C55.0239 26.9126 55.2078 27.1662 55.3371 27.3651H55.5161V25.5455H57.2164V37.3281C57.2164 38.3125 56.9926 39.1129 56.5452 39.7294C56.1027 40.3509 55.5061 40.8058 54.7554 41.0941C54.0097 41.3874 53.1794 41.5341 52.2646 41.5341ZM52.205 35.2401C52.911 35.2401 53.5075 35.0785 53.9948 34.7553C54.482 34.4322 54.8524 33.9673 55.1059 33.3608C55.3595 32.7543 55.4862 32.0284 55.4862 31.1832C55.4862 30.358 55.3619 29.6296 55.1134 28.9982C54.8648 28.3668 54.4969 27.8722 54.0097 27.5142C53.5225 27.1562 52.9209 26.9773 52.205 26.9773C51.4593 26.9773 50.8378 27.1662 50.3406 27.544C49.8485 27.9219 49.4781 28.429 49.2295 29.0653C48.9859 29.7017 48.8641 30.4077 48.8641 31.1832C48.8641 31.9787 48.9884 32.6822 49.2369 33.2937C49.4905 33.9002 49.8634 34.3775 50.3556 34.7255C50.8527 35.0685 51.4692 35.2401 52.205 35.2401ZM65.2405 37.2386C64.1368 37.2386 63.1847 36.995 62.3843 36.5078C61.5889 36.0156 60.9749 35.3295 60.5423 34.4496C60.1148 33.5646 59.901 32.5355 59.901 31.3622C59.901 30.1889 60.1148 29.1548 60.5423 28.2599C60.9749 27.3601 61.5764 26.6591 62.347 26.157C63.1226 25.6499 64.0274 25.3963 65.0615 25.3963C65.6581 25.3963 66.2472 25.4957 66.8289 25.6946C67.4106 25.8935 67.9401 26.2166 68.4173 26.6641C68.8946 27.1065 69.2749 27.6932 69.5583 28.424C69.8417 29.1548 69.9834 30.0547 69.9834 31.1236V31.8693H61.1539V30.348H68.1936C68.1936 29.7017 68.0644 29.125 67.8058 28.6179C67.5523 28.1108 67.1894 27.7106 66.7171 27.4173C66.2497 27.1239 65.6979 26.9773 65.0615 26.9773C64.3605 26.9773 63.754 27.1513 63.2419 27.4993C62.7348 27.8423 62.3445 28.2898 62.0711 28.8416C61.7977 29.3935 61.661 29.9851 61.661 30.6165V31.6307C61.661 32.4957 61.8101 33.229 62.1084 33.8306C62.4117 34.4272 62.8318 34.8821 63.3687 35.1953C63.9056 35.5036 64.5296 35.6577 65.2405 35.6577C65.7029 35.6577 66.1205 35.593 66.4933 35.4638C66.8712 35.3295 67.1968 35.1307 67.4703 34.8672C67.7437 34.5987 67.955 34.2656 68.1041 33.8679L69.8044 34.3452C69.6254 34.9219 69.3247 35.429 68.9021 35.8665C68.4795 36.299 67.9575 36.6371 67.336 36.8807C66.7146 37.1193 66.0161 37.2386 65.2405 37.2386ZM74.4205 30.1094V37H72.6606V25.5455H74.3609V27.3352H74.51C74.7785 26.7536 75.1862 26.2862 75.733 25.9332C76.2799 25.5753 76.9859 25.3963 77.8509 25.3963C78.6265 25.3963 79.3051 25.5554 79.8868 25.8736C80.4685 26.1868 80.9209 26.6641 81.2441 27.3054C81.5672 27.9418 81.7288 28.7472 81.7288 29.7216V37H79.9688V29.8409C79.9688 28.9411 79.7352 28.2401 79.2678 27.7379C78.8005 27.2308 78.1592 26.9773 77.3438 26.9773C76.782 26.9773 76.2799 27.0991 75.8374 27.3427C75.3999 27.5863 75.0544 27.9418 74.8009 28.4091C74.5473 28.8764 74.4205 29.4432 74.4205 30.1094ZM89.9263 25.5455V27.0369H83.9902V25.5455H89.9263ZM85.7203 22.8011H87.4803V33.7188C87.4803 34.2159 87.5524 34.5888 87.6966 34.8374C87.8457 35.081 88.0346 35.245 88.2633 35.3295C88.497 35.4091 88.7431 35.4489 89.0016 35.4489C89.1955 35.4489 89.3546 35.4389 89.4789 35.419C89.6032 35.3942 89.7026 35.3743 89.7772 35.3594L90.1351 36.9403C90.0158 36.9851 89.8493 37.0298 89.6355 37.0746C89.4217 37.1243 89.1507 37.1491 88.8226 37.1491C88.3255 37.1491 87.8382 37.0423 87.361 36.8285C86.8887 36.6147 86.4959 36.2891 86.1827 35.8516C85.8745 35.4141 85.7203 34.8622 85.7203 34.196V22.8011Z" fill="black"/>
<g clip-path="url(#clip0_156_963)">
<path d="M119.904 36.755C119.67 36.7554 119.441 36.6805 119.252 36.5414L111 30.4582L102.748 36.5414C102.632 36.627 102.501 36.6889 102.361 36.7237C102.221 36.7584 102.076 36.7653 101.933 36.7439C101.791 36.7226 101.654 36.6734 101.53 36.5992C101.407 36.525 101.299 36.4272 101.214 36.3114C101.128 36.1957 101.066 36.0642 101.031 35.9245C100.997 35.7848 100.99 35.6396 101.011 35.4973C101.054 35.2097 101.21 34.9511 101.444 34.7783L110.348 28.2079C110.537 28.0683 110.765 27.9929 111 27.9929C111.235 27.9929 111.463 28.0683 111.652 28.2079L120.556 34.7783C120.742 34.9153 120.88 35.1074 120.95 35.3272C121.02 35.5471 121.019 35.7835 120.947 36.0027C120.875 36.2219 120.735 36.4126 120.548 36.5477C120.36 36.6828 120.135 36.7554 119.904 36.755Z" fill="#FF3D00"/>
<path d="M119.904 31.0058C119.67 31.0062 119.441 30.9314 119.252 30.7923L111 24.7091L102.748 30.7923C102.514 30.9651 102.221 31.0379 101.933 30.9948C101.645 30.9517 101.387 30.7961 101.214 30.5623C101.041 30.3285 100.968 30.0356 101.011 29.7481C101.054 29.4606 101.21 29.202 101.444 29.0292L110.348 22.4587C110.537 22.3191 110.765 22.2438 111 22.2438C111.235 22.2438 111.463 22.3191 111.652 22.4587L120.556 29.0292C120.742 29.1661 120.88 29.3582 120.95 29.5781C121.02 29.798 121.019 30.0344 120.947 30.2536C120.875 30.4727 120.735 30.6635 120.548 30.7986C120.36 30.9337 120.135 31.0062 119.904 31.0058Z" fill="#FF3D00"/>
</g>
</g>
<defs>
<filter id="filter0_d_156_963" x="0" y="0" width="144" height="59" filterUnits="userSpaceOnUse" color-interpolation-filters="sRGB">
<feFlood flood-opacity="0" result="BackgroundImageFix"/>
<feColorMatrix in="SourceAlpha" type="matrix" values="0 0 0 0 0 0 0 0 0 0 0 0 0 0 0 0 0 0 127 0" result="hardAlpha"/>
<feOffset/>
<feGaussianBlur stdDeviation="2"/>
<feColorMatrix type="matrix" values="0 0 0 0 0 0 0 0 0 0 0 0 0 0 0 0 0 0 0.1 0"/>
<feBlend mode="normal" in2="BackgroundImageFix" result="effect1_dropShadow_156_963"/>
<feBlend mode="normal" in="SourceGraphic" in2="effect1_dropShadow_156_963" result="shape"/>
</filter>
<clipPath id="clip0_156_963">
<rect width="20" height="14.5098" fill="white" transform="translate(101 22.2451)"/>
</clipPath>
</defs>
</svg>
