<svg width="149" height="69" viewBox="0 0 149 69" fill="none" xmlns="http://www.w3.org/2000/svg">
<g filter="url(#filter0_d_156_941)">
<rect x="4" width="141" height="61" rx="10" fill="white"/>
<path d="M37.3722 22.7273H39.2216V32.8395C39.2216 33.8835 38.9755 34.8157 38.4833 35.636C37.9961 36.4513 37.3075 37.0952 36.4176 37.5675C35.5277 38.0348 34.4837 38.2685 33.2855 38.2685C32.0874 38.2685 31.0433 38.0348 30.1534 37.5675C29.2635 37.0952 28.5724 36.4513 28.0803 35.636C27.593 34.8157 27.3494 33.8835 27.3494 32.8395V22.7273H29.1989V32.6903C29.1989 33.4361 29.3629 34.0998 29.6911 34.6815C30.0192 35.2582 30.4865 35.7131 31.093 36.0462C31.7045 36.3743 32.4354 36.5384 33.2855 36.5384C34.1357 36.5384 34.8665 36.3743 35.478 36.0462C36.0895 35.7131 36.5568 35.2582 36.88 34.6815C37.2081 34.0998 37.3722 33.4361 37.3722 32.6903V22.7273ZM42.6762 38V26.5455H44.3765V28.2756H44.4958C44.7046 27.7088 45.0825 27.2489 45.6294 26.896C46.1762 26.543 46.7927 26.3665 47.4788 26.3665C47.608 26.3665 47.7696 26.369 47.9635 26.3739C48.1574 26.3789 48.3041 26.3864 48.4035 26.3963V28.1861C48.3438 28.1712 48.2071 28.1488 47.9933 28.119C47.7845 28.0842 47.5633 28.0668 47.3296 28.0668C46.7728 28.0668 46.2757 28.1836 45.8382 28.4173C45.4056 28.646 45.0626 28.9641 44.809 29.3718C44.5605 29.7745 44.4362 30.2344 44.4362 30.7514V38H42.6762ZM54.7646 42.5341C53.9145 42.5341 53.1837 42.4247 52.5722 42.206C51.9607 41.9922 51.4511 41.7088 51.0434 41.3558C50.6407 41.0078 50.32 40.6349 50.0814 40.2372L51.4834 39.2528C51.6425 39.4616 51.8438 39.7003 52.0874 39.9688C52.3311 40.2422 52.6642 40.4783 53.0867 40.6772C53.5143 40.881 54.0736 40.983 54.7646 40.983C55.6894 40.983 56.4525 40.7592 57.0541 40.3118C57.6556 39.8643 57.9564 39.1634 57.9564 38.2088V35.8821H57.8073C57.678 36.0909 57.4941 36.3494 57.2554 36.6577C57.0218 36.9609 56.6837 37.2319 56.2412 37.4705C55.8037 37.7042 55.2121 37.821 54.4664 37.821C53.5416 37.821 52.7114 37.6023 51.9756 37.1648C51.2448 36.7273 50.6656 36.0909 50.238 35.2557C49.8154 34.4205 49.6041 33.4062 49.6041 32.2131C49.6041 31.0398 49.8105 30.0181 50.2231 29.1481C50.6357 28.2731 51.21 27.5969 51.9458 27.1197C52.6816 26.6374 53.5317 26.3963 54.4962 26.3963C55.2419 26.3963 55.8335 26.5206 56.271 26.7692C56.7135 27.0128 57.0516 27.2912 57.2852 27.6044C57.5239 27.9126 57.7078 28.1662 57.8371 28.3651H58.0161V26.5455H59.7164V38.3281C59.7164 39.3125 59.4926 40.1129 59.0452 40.7294C58.6027 41.3509 58.0061 41.8058 57.2554 42.0941C56.5097 42.3874 55.6794 42.5341 54.7646 42.5341ZM54.705 36.2401C55.411 36.2401 56.0075 36.0785 56.4948 35.7553C56.982 35.4322 57.3524 34.9673 57.6059 34.3608C57.8595 33.7543 57.9862 33.0284 57.9862 32.1832C57.9862 31.358 57.8619 30.6296 57.6134 29.9982C57.3648 29.3668 56.9969 28.8722 56.5097 28.5142C56.0225 28.1562 55.4209 27.9773 54.705 27.9773C53.9593 27.9773 53.3378 28.1662 52.8406 28.544C52.3485 28.9219 51.9781 29.429 51.7295 30.0653C51.4859 30.7017 51.3641 31.4077 51.3641 32.1832C51.3641 32.9787 51.4884 33.6822 51.7369 34.2937C51.9905 34.9002 52.3634 35.3775 52.8556 35.7255C53.3527 36.0685 53.9692 36.2401 54.705 36.2401ZM67.7405 38.2386C66.6368 38.2386 65.6847 37.995 64.8843 37.5078C64.0889 37.0156 63.4749 36.3295 63.0423 35.4496C62.6148 34.5646 62.401 33.5355 62.401 32.3622C62.401 31.1889 62.6148 30.1548 63.0423 29.2599C63.4749 28.3601 64.0764 27.6591 64.847 27.157C65.6226 26.6499 66.5274 26.3963 67.5615 26.3963C68.1581 26.3963 68.7472 26.4957 69.3289 26.6946C69.9106 26.8935 70.4401 27.2166 70.9173 27.6641C71.3946 28.1065 71.7749 28.6932 72.0583 29.424C72.3417 30.1548 72.4834 31.0547 72.4834 32.1236V32.8693H63.6539V31.348H70.6936C70.6936 30.7017 70.5644 30.125 70.3058 29.6179C70.0523 29.1108 69.6894 28.7106 69.2171 28.4173C68.7497 28.1239 68.1979 27.9773 67.5615 27.9773C66.8605 27.9773 66.254 28.1513 65.7419 28.4993C65.2348 28.8423 64.8445 29.2898 64.5711 29.8416C64.2977 30.3935 64.161 30.9851 64.161 31.6165V32.6307C64.161 33.4957 64.3101 34.229 64.6084 34.8306C64.9117 35.4272 65.3318 35.8821 65.8687 36.1953C66.4056 36.5036 67.0296 36.6577 67.7405 36.6577C68.2029 36.6577 68.6205 36.593 68.9933 36.4638C69.3712 36.3295 69.6968 36.1307 69.9703 35.8672C70.2437 35.5987 70.455 35.2656 70.6041 34.8679L72.3044 35.3452C72.1254 35.9219 71.8247 36.429 71.4021 36.8665C70.9795 37.299 70.4575 37.6371 69.836 37.8807C69.2146 38.1193 68.5161 38.2386 67.7405 38.2386ZM76.9205 31.1094V38H75.1606V26.5455H76.8609V28.3352H77.01C77.2785 27.7536 77.6862 27.2862 78.233 26.9332C78.7799 26.5753 79.4859 26.3963 80.3509 26.3963C81.1265 26.3963 81.8051 26.5554 82.3868 26.8736C82.9685 27.1868 83.4209 27.6641 83.7441 28.3054C84.0672 28.9418 84.2288 29.7472 84.2288 30.7216V38H82.4688V30.8409C82.4688 29.9411 82.2352 29.2401 81.7678 28.7379C81.3005 28.2308 80.6592 27.9773 79.8438 27.9773C79.282 27.9773 78.7799 28.0991 78.3374 28.3427C77.8999 28.5863 77.5544 28.9418 77.3009 29.4091C77.0473 29.8764 76.9205 30.4432 76.9205 31.1094ZM92.4263 26.5455V28.0369H86.4902V26.5455H92.4263ZM88.2203 23.8011H89.9803V34.7188C89.9803 35.2159 90.0524 35.5888 90.1966 35.8374C90.3457 36.081 90.5346 36.245 90.7633 36.3295C90.997 36.4091 91.2431 36.4489 91.5016 36.4489C91.6955 36.4489 91.8546 36.4389 91.9789 36.419C92.1032 36.3942 92.2026 36.3743 92.2772 36.3594L92.6351 37.9403C92.5158 37.9851 92.3493 38.0298 92.1355 38.0746C91.9217 38.1243 91.6507 38.1491 91.3226 38.1491C90.8255 38.1491 90.3382 38.0423 89.861 37.8285C89.3887 37.6147 88.9959 37.2891 88.6827 36.8516C88.3745 36.4141 88.2203 35.8622 88.2203 35.196V23.8011Z" fill="black"/>
<g clip-path="url(#clip0_156_941)">
<path d="M122.404 37.755C122.17 37.7554 121.941 37.6805 121.752 37.5414L113.5 31.4582L105.248 37.5414C105.132 37.627 105.001 37.6889 104.861 37.7237C104.721 37.7584 104.576 37.7653 104.433 37.7439C104.291 37.7226 104.154 37.6734 104.03 37.5992C103.907 37.525 103.799 37.4272 103.714 37.3114C103.628 37.1957 103.566 37.0642 103.531 36.9245C103.497 36.7848 103.49 36.6396 103.511 36.4973C103.554 36.2097 103.71 35.9511 103.944 35.7783L112.848 29.2079C113.037 29.0683 113.265 28.9929 113.5 28.9929C113.735 28.9929 113.963 29.0683 114.152 29.2079L123.056 35.7783C123.242 35.9153 123.38 36.1074 123.45 36.3272C123.52 36.5471 123.519 36.7835 123.447 37.0027C123.375 37.2219 123.235 37.4126 123.048 37.5477C122.86 37.6828 122.635 37.7554 122.404 37.755Z" fill="#FF3D00"/>
<path d="M122.404 32.0058C122.17 32.0062 121.941 31.9314 121.752 31.7923L113.5 25.7091L105.248 31.7923C105.014 31.9651 104.721 32.0379 104.433 31.9948C104.145 31.9517 103.887 31.7961 103.714 31.5623C103.541 31.3285 103.468 31.0356 103.511 30.7481C103.554 30.4606 103.71 30.202 103.944 30.0292L112.848 23.4587C113.037 23.3191 113.265 23.2438 113.5 23.2438C113.735 23.2438 113.963 23.3191 114.152 23.4587L123.056 30.0292C123.242 30.1661 123.38 30.3582 123.45 30.5781C123.52 30.798 123.519 31.0344 123.447 31.2536C123.375 31.4727 123.235 31.6635 123.048 31.7986C122.86 31.9337 122.635 32.0062 122.404 32.0058Z" fill="#FF3D00"/>
</g>
</g>
<defs>
<filter id="filter0_d_156_941" x="0" y="0" width="149" height="69" filterUnits="userSpaceOnUse" color-interpolation-filters="sRGB">
<feFlood flood-opacity="0" result="BackgroundImageFix"/>
<feColorMatrix in="SourceAlpha" type="matrix" values="0 0 0 0 0 0 0 0 0 0 0 0 0 0 0 0 0 0 127 0" result="hardAlpha"/>
<feOffset dy="4"/>
<feGaussianBlur stdDeviation="2"/>
<feComposite in2="hardAlpha" operator="out"/>
<feColorMatrix type="matrix" values="0 0 0 0 0 0 0 0 0 0 0 0 0 0 0 0 0 0 0.25 0"/>
<feBlend mode="normal" in2="BackgroundImageFix" result="effect1_dropShadow_156_941"/>
<feBlend mode="normal" in="SourceGraphic" in2="effect1_dropShadow_156_941" result="shape"/>
</filter>
<clipPath id="clip0_156_941">
<rect width="20" height="14.5098" fill="white" transform="translate(103.5 23.2451)"/>
</clipPath>
</defs>
</svg>
