<svg width="144" height="59" viewBox="0 0 144 59" fill="none" xmlns="http://www.w3.org/2000/svg">
<g filter="url(#filter0_d_156_1007)">
<rect x="4" width="136" height="51" rx="10" fill="#FF3D00"/>
<path d="M32.261 17.7273H35.4901V27.6456C35.4901 28.7592 35.2241 29.7337 34.6921 30.5689C34.1651 31.4041 33.4268 32.0554 32.4773 32.5227C31.5277 32.9851 30.4215 33.2163 29.1587 33.2163C27.891 33.2163 26.7823 32.9851 25.8327 32.5227C24.8832 32.0554 24.1449 31.4041 23.6179 30.5689C23.0909 29.7337 22.8274 28.7592 22.8274 27.6456V17.7273H26.0565V27.3697C26.0565 27.9513 26.1832 28.4684 26.4368 28.9208C26.6953 29.3732 27.0582 29.7287 27.5256 29.9872C27.9929 30.2457 28.5373 30.375 29.1587 30.375C29.7852 30.375 30.3295 30.2457 30.7919 29.9872C31.2592 29.7287 31.6197 29.3732 31.8732 28.9208C32.1317 28.4684 32.261 27.9513 32.261 27.3697V17.7273ZM38.0871 33V21.5455H41.167V23.544H41.2863C41.4951 22.8331 41.8456 22.2962 42.3378 21.9332C42.83 21.5653 43.3968 21.3814 44.0381 21.3814C44.1972 21.3814 44.3687 21.3913 44.5526 21.4112C44.7366 21.4311 44.8982 21.4585 45.0374 21.4933V24.3121C44.8882 24.2674 44.6819 24.2276 44.4184 24.1928C44.1549 24.158 43.9138 24.1406 43.695 24.1406C43.2277 24.1406 42.8101 24.2425 42.4422 24.4464C42.0793 24.6452 41.7909 24.9237 41.5771 25.2816C41.3683 25.6396 41.2639 26.0522 41.2639 26.5195V33H38.0871ZM51.3072 37.5341C50.2781 37.5341 49.3956 37.3924 48.6598 37.109C47.929 36.8306 47.3473 36.4503 46.9148 35.968C46.4822 35.4858 46.2013 34.9439 46.0721 34.3423L49.0103 33.9471C49.0998 34.1758 49.2415 34.3896 49.4354 34.5884C49.6293 34.7873 49.8853 34.9464 50.2035 35.0657C50.5266 35.19 50.9194 35.2521 51.3817 35.2521C52.0728 35.2521 52.642 35.0831 53.0895 34.745C53.5419 34.4119 53.7681 33.8526 53.7681 33.0671V30.9716H53.6339C53.4947 31.2898 53.2859 31.5906 53.0075 31.8739C52.729 32.1573 52.3711 32.3885 51.9336 32.5675C51.4961 32.7464 50.9741 32.8359 50.3675 32.8359C49.5075 32.8359 48.7244 32.6371 48.0185 32.2393C47.3175 31.8366 46.7582 31.2227 46.3406 30.3974C45.9279 29.5671 45.7216 28.5181 45.7216 27.2504C45.7216 25.9528 45.9329 24.869 46.3555 23.9989C46.7781 23.1289 47.3398 22.4776 48.0408 22.0451C48.7468 21.6126 49.5199 21.3963 50.3601 21.3963C51.0014 21.3963 51.5384 21.5057 51.9709 21.7244C52.4034 21.9382 52.7514 22.2067 53.0149 22.5298C53.2834 22.848 53.4897 23.1612 53.6339 23.4695H53.7532V21.5455H56.9077V33.1119C56.9077 34.0863 56.669 34.9016 56.1918 35.5579C55.7145 36.2141 55.0533 36.7063 54.2081 37.0344C53.3679 37.3675 52.4009 37.5341 51.3072 37.5341ZM51.3743 30.4496C51.8864 30.4496 52.3189 30.3228 52.6719 30.0692C53.0298 29.8107 53.3033 29.4428 53.4922 28.9656C53.6861 28.4833 53.783 27.9066 53.783 27.2354C53.783 26.5643 53.6886 25.9826 53.4996 25.4904C53.3107 24.9933 53.0373 24.608 52.6793 24.3345C52.3214 24.0611 51.8864 23.9244 51.3743 23.9244C50.8523 23.9244 50.4123 24.0661 50.0543 24.3494C49.6964 24.6278 49.4254 25.0156 49.2415 25.5128C49.0575 26.0099 48.9656 26.5842 48.9656 27.2354C48.9656 27.8967 49.0575 28.4684 49.2415 28.9506C49.4304 29.4279 49.7013 29.7983 50.0543 30.0618C50.4123 30.3203 50.8523 30.4496 51.3743 30.4496ZM64.6559 33.2237C63.4776 33.2237 62.4634 32.9851 61.6133 32.5078C60.7681 32.0256 60.1168 31.3445 59.6594 30.4645C59.2021 29.5795 58.9734 28.533 58.9734 27.3249C58.9734 26.1467 59.2021 25.1126 59.6594 24.2227C60.1168 23.3327 60.7607 22.6392 61.5909 22.142C62.4261 21.6449 63.4055 21.3963 64.5291 21.3963C65.2848 21.3963 65.9883 21.5181 66.6396 21.7617C67.2958 22.0004 67.8675 22.3608 68.3548 22.843C68.8469 23.3253 69.2298 23.9318 69.5032 24.6626C69.7766 25.3885 69.9134 26.2386 69.9134 27.2131V28.0856H60.2411V26.1168H66.9229C66.9229 25.6594 66.8235 25.2543 66.6246 24.9013C66.4258 24.5483 66.1499 24.2724 65.7969 24.0735C65.4489 23.8697 65.0437 23.7678 64.5813 23.7678C64.0991 23.7678 63.6715 23.8796 63.2987 24.1033C62.9308 24.3221 62.6424 24.6179 62.4336 24.9908C62.2248 25.3587 62.1179 25.7688 62.1129 26.2212V28.093C62.1129 28.6598 62.2173 29.1495 62.4261 29.5621C62.6399 29.9748 62.9407 30.293 63.3285 30.5167C63.7163 30.7404 64.1761 30.8523 64.7081 30.8523C65.0611 30.8523 65.3842 30.8026 65.6776 30.7031C65.9709 30.6037 66.2219 30.4545 66.4308 30.2557C66.6396 30.0568 66.7987 29.8132 66.908 29.5249L69.8462 29.7188C69.6971 30.4247 69.3913 31.0412 68.929 31.5682C68.4716 32.0902 67.88 32.4979 67.1541 32.7912C66.4332 33.0795 65.6005 33.2237 64.6559 33.2237ZM75.1634 26.3778V33H71.9865V21.5455H75.0142V23.5664H75.1484C75.402 22.9002 75.8271 22.3732 76.4237 21.9854C77.0202 21.5927 77.7436 21.3963 78.5938 21.3963C79.3892 21.3963 80.0827 21.5703 80.6744 21.9183C81.266 22.2663 81.7259 22.7635 82.054 23.4098C82.3821 24.0511 82.5462 24.8168 82.5462 25.7067V33H79.3693V26.2734C79.3743 25.5724 79.1953 25.0256 78.8324 24.6328C78.4695 24.2351 77.9698 24.0362 77.3335 24.0362C76.9059 24.0362 76.5281 24.1282 76.1999 24.3121C75.8768 24.4961 75.6232 24.7646 75.4393 25.1175C75.2603 25.4656 75.1683 25.8857 75.1634 26.3778ZM91.1427 21.5455V23.9318H84.2446V21.5455H91.1427ZM85.8106 18.8011H88.9875V29.4801C88.9875 29.7734 89.0322 30.0021 89.1217 30.1662C89.2112 30.3253 89.3355 30.4371 89.4946 30.5018C89.6586 30.5664 89.8476 30.5987 90.0613 30.5987C90.2105 30.5987 90.3596 30.5863 90.5088 30.5614C90.6579 30.5316 90.7723 30.5092 90.8518 30.4943L91.3515 32.8583C91.1924 32.908 90.9687 32.9652 90.6803 33.0298C90.392 33.0994 90.0415 33.1417 89.6288 33.1566C88.8632 33.1864 88.192 33.0845 87.6153 32.8509C87.0436 32.6172 86.5986 32.2543 86.2805 31.7621C85.9623 31.2699 85.8057 30.6484 85.8106 29.8977V18.8011Z" fill="white"/>
<g clip-path="url(#clip0_156_1007)">
<path d="M121.404 32.755C121.17 32.7554 120.941 32.6805 120.752 32.5414L112.5 26.4582L104.248 32.5414C104.132 32.627 104.001 32.6889 103.861 32.7237C103.721 32.7584 103.576 32.7653 103.433 32.7439C103.291 32.7226 103.154 32.6734 103.03 32.5992C102.907 32.525 102.799 32.4272 102.714 32.3114C102.628 32.1957 102.566 32.0642 102.531 31.9245C102.497 31.7848 102.49 31.6396 102.511 31.4973C102.554 31.2097 102.71 30.9511 102.944 30.7783L111.848 24.2079C112.037 24.0683 112.265 23.9929 112.5 23.9929C112.735 23.9929 112.963 24.0683 113.152 24.2079L122.056 30.7783C122.242 30.9153 122.38 31.1074 122.45 31.3272C122.52 31.5471 122.519 31.7835 122.447 32.0027C122.375 32.2219 122.235 32.4126 122.048 32.5477C121.86 32.6828 121.635 32.7554 121.404 32.755Z" fill="white"/>
<path d="M121.404 27.0058C121.17 27.0062 120.941 26.9314 120.752 26.7923L112.5 20.7091L104.248 26.7923C104.014 26.9651 103.721 27.0379 103.433 26.9948C103.145 26.9517 102.887 26.7961 102.714 26.5623C102.541 26.3285 102.468 26.0356 102.511 25.7481C102.554 25.4606 102.71 25.202 102.944 25.0292L111.848 18.4587C112.037 18.3191 112.265 18.2438 112.5 18.2438C112.735 18.2438 112.963 18.3191 113.152 18.4587L122.056 25.0292C122.242 25.1661 122.38 25.3582 122.45 25.5781C122.52 25.798 122.519 26.0344 122.447 26.2536C122.375 26.4727 122.235 26.6635 122.048 26.7986C121.86 26.9337 121.635 27.0062 121.404 27.0058Z" fill="white"/>
</g>
</g>
<defs>
<filter id="filter0_d_156_1007" x="0" y="0" width="144" height="59" filterUnits="userSpaceOnUse" color-interpolation-filters="sRGB">
<feFlood flood-opacity="0" result="BackgroundImageFix"/>
<feColorMatrix in="SourceAlpha" type="matrix" values="0 0 0 0 0 0 0 0 0 0 0 0 0 0 0 0 0 0 127 0" result="hardAlpha"/>
<feOffset dy="4"/>
<feGaussianBlur stdDeviation="2"/>
<feComposite in2="hardAlpha" operator="out"/>
<feColorMatrix type="matrix" values="0 0 0 0 0 0 0 0 0 0 0 0 0 0 0 0 0 0 0.25 0"/>
<feBlend mode="normal" in2="BackgroundImageFix" result="effect1_dropShadow_156_1007"/>
<feBlend mode="normal" in="SourceGraphic" in2="effect1_dropShadow_156_1007" result="shape"/>
</filter>
<clipPath id="clip0_156_1007">
<rect width="20" height="14.5098" fill="white" transform="translate(102.5 18.2451)"/>
</clipPath>
</defs>
</svg>
