<svg width="137" height="51" viewBox="0 0 137 51" fill="none" xmlns="http://www.w3.org/2000/svg">
<rect x="0.5" y="0.5" width="136" height="50" rx="9.5" fill="#2A3647"/>
<path d="M13.9599 33H10.4996L15.772 17.7273H19.9332L25.1982 33H21.7379L17.9123 21.2173H17.793L13.9599 33ZM13.7436 26.9968H21.9169V29.5174H13.7436V26.9968ZM30.6644 33.1864C29.7944 33.1864 29.0064 32.9627 28.3004 32.5153C27.5994 32.0629 27.0426 31.3991 26.63 30.5241C26.2223 29.6442 26.0185 28.5653 26.0185 27.2876C26.0185 25.9751 26.2298 24.8839 26.6523 24.0138C27.0749 23.1388 27.6367 22.4851 28.3377 22.0526C29.0437 21.6151 29.8168 21.3963 30.657 21.3963C31.2983 21.3963 31.8327 21.5057 32.2603 21.7244C32.6928 21.9382 33.0408 22.2067 33.3043 22.5298C33.5728 22.848 33.7766 23.1612 33.9158 23.4695H34.0128V17.7273H37.1822V33H34.0501V31.1655H33.9158C33.7667 31.4837 33.5554 31.7994 33.282 32.1126C33.0135 32.4208 32.663 32.6768 32.2305 32.8807C31.8029 33.0845 31.2809 33.1864 30.6644 33.1864ZM31.6712 30.6584C32.1832 30.6584 32.6158 30.5192 32.9688 30.2408C33.3267 29.9574 33.6001 29.5621 33.7891 29.055C33.983 28.5479 34.0799 27.9538 34.0799 27.2727C34.0799 26.5916 33.9854 26 33.7965 25.4979C33.6076 24.9957 33.3342 24.608 32.9762 24.3345C32.6183 24.0611 32.1832 23.9244 31.6712 23.9244C31.1491 23.9244 30.7092 24.0661 30.3512 24.3494C29.9933 24.6328 29.7223 25.0256 29.5384 25.5277C29.3544 26.0298 29.2624 26.6115 29.2624 27.2727C29.2624 27.9389 29.3544 28.5281 29.5384 29.0401C29.7273 29.5472 29.9982 29.945 30.3512 30.2333C30.7092 30.5167 31.1491 30.6584 31.6712 30.6584ZM44.015 33.1864C43.145 33.1864 42.357 32.9627 41.651 32.5153C40.95 32.0629 40.3932 31.3991 39.9806 30.5241C39.5729 29.6442 39.3691 28.5653 39.3691 27.2876C39.3691 25.9751 39.5803 24.8839 40.0029 24.0138C40.4255 23.1388 40.9873 22.4851 41.6883 22.0526C42.3943 21.6151 43.1673 21.3963 44.0075 21.3963C44.6489 21.3963 45.1833 21.5057 45.6109 21.7244C46.0434 21.9382 46.3914 22.2067 46.6549 22.5298C46.9234 22.848 47.1272 23.1612 47.2664 23.4695H47.3634V17.7273H50.5328V33H47.4007V31.1655H47.2664C47.1173 31.4837 46.906 31.7994 46.6325 32.1126C46.3641 32.4208 46.0136 32.6768 45.5811 32.8807C45.1535 33.0845 44.6315 33.1864 44.015 33.1864ZM45.0218 30.6584C45.5338 30.6584 45.9664 30.5192 46.3193 30.2408C46.6773 29.9574 46.9507 29.5621 47.1396 29.055C47.3335 28.5479 47.4305 27.9538 47.4305 27.2727C47.4305 26.5916 47.336 26 47.1471 25.4979C46.9582 24.9957 46.6847 24.608 46.3268 24.3345C45.9688 24.0611 45.5338 23.9244 45.0218 23.9244C44.4997 23.9244 44.0597 24.0661 43.7018 24.3494C43.3438 24.6328 43.0729 25.0256 42.8889 25.5277C42.705 26.0298 42.613 26.6115 42.613 27.2727C42.613 27.9389 42.705 28.5281 42.8889 29.0401C43.0779 29.5472 43.3488 29.945 43.7018 30.2333C44.0597 30.5167 44.4997 30.6584 45.0218 30.6584ZM64.0977 21.5455V23.9318H57.1997V21.5455H64.0977ZM58.7657 18.8011H61.9426V29.4801C61.9426 29.7734 61.9873 30.0021 62.0768 30.1662C62.1663 30.3253 62.2906 30.4371 62.4497 30.5018C62.6137 30.5664 62.8026 30.5987 63.0164 30.5987C63.1656 30.5987 63.3147 30.5863 63.4639 30.5614C63.613 30.5316 63.7274 30.5092 63.8069 30.4943L64.3066 32.8583C64.1475 32.908 63.9237 32.9652 63.6354 33.0298C63.347 33.0994 62.9965 33.1417 62.5839 33.1566C61.8183 33.1864 61.1471 33.0845 60.5704 32.8509C59.9987 32.6172 59.5537 32.2543 59.2355 31.7621C58.9173 31.2699 58.7607 30.6484 58.7657 29.8977V18.8011ZM69.4335 33.2163C68.7027 33.2163 68.0514 33.0895 67.4797 32.8359C66.9079 32.5774 66.4555 32.1971 66.1224 31.695C65.7943 31.1879 65.6302 30.5565 65.6302 29.8008C65.6302 29.1644 65.7471 28.63 65.9807 28.1974C66.2144 27.7649 66.5326 27.4169 66.9353 27.1534C67.338 26.8899 67.7954 26.6911 68.3074 26.5568C68.8245 26.4226 69.3664 26.3281 69.9332 26.2734C70.5993 26.2038 71.1363 26.1392 71.5439 26.0795C71.9516 26.0149 72.2474 25.9205 72.4314 25.7962C72.6153 25.6719 72.7073 25.4879 72.7073 25.2443V25.1996C72.7073 24.7273 72.5582 24.3619 72.2599 24.1033C71.9665 23.8448 71.5489 23.7156 71.007 23.7156C70.4353 23.7156 69.9804 23.8423 69.6423 24.0959C69.3042 24.3445 69.0805 24.6577 68.9711 25.0355L66.0329 24.7969C66.1821 24.1009 66.4754 23.4993 66.9129 22.9922C67.3504 22.4801 67.9147 22.0874 68.6057 21.8139C69.3018 21.5355 70.1072 21.3963 71.0219 21.3963C71.6583 21.3963 72.2673 21.4709 72.849 21.62C73.4356 21.7692 73.9552 22.0004 74.4076 22.3136C74.865 22.6268 75.2254 23.0295 75.4889 23.5217C75.7524 24.0089 75.8841 24.593 75.8841 25.2741V33H72.8714V31.4116H72.7819C72.5979 31.7695 72.3518 32.0852 72.0436 32.3587C71.7354 32.6271 71.365 32.8384 70.9324 32.9925C70.4999 33.1417 70.0003 33.2163 69.4335 33.2163ZM70.3433 31.0238C70.8106 31.0238 71.2233 30.9318 71.5812 30.7479C71.9392 30.5589 72.2201 30.3054 72.4239 29.9872C72.6278 29.669 72.7297 29.3086 72.7297 28.9059V27.6903C72.6302 27.755 72.4935 27.8146 72.3195 27.8693C72.1505 27.919 71.9591 27.9663 71.7453 28.011C71.5315 28.0508 71.3177 28.0881 71.104 28.1229C70.8902 28.1527 70.6963 28.18 70.5223 28.2049C70.1494 28.2596 69.8238 28.3466 69.5454 28.4659C69.267 28.5852 69.0507 28.7468 68.8966 28.9506C68.7425 29.1495 68.6654 29.3981 68.6654 29.6964C68.6654 30.1289 68.822 30.4595 69.1352 30.6882C69.4534 30.9119 69.8561 31.0238 70.3433 31.0238ZM87.8794 24.8118L84.971 24.9908C84.9213 24.7422 84.8144 24.5185 84.6503 24.3196C84.4862 24.1158 84.27 23.9542 84.0015 23.8349C83.738 23.7106 83.4223 23.6484 83.0544 23.6484C82.5622 23.6484 82.1471 23.7528 81.809 23.9616C81.471 24.1655 81.3019 24.4389 81.3019 24.782C81.3019 25.0554 81.4113 25.2866 81.6301 25.4755C81.8488 25.6644 82.2242 25.8161 82.7561 25.9304L84.8293 26.348C85.9429 26.5767 86.7732 26.9446 87.32 27.4517C87.8669 27.9588 88.1404 28.625 88.1404 29.4503C88.1404 30.201 87.9191 30.8597 87.4767 31.4265C87.0392 31.9933 86.4376 32.4357 85.672 32.7539C84.9113 33.0671 84.0338 33.2237 83.0395 33.2237C81.5232 33.2237 80.3151 32.908 79.4152 32.2766C78.5203 31.6403 77.9958 30.7752 77.8417 29.6815L80.9664 29.5174C81.0608 29.9798 81.2895 30.3327 81.6524 30.5763C82.0154 30.815 82.4802 30.9343 83.047 30.9343C83.6038 30.9343 84.0512 30.8274 84.3893 30.6136C84.7323 30.3949 84.9063 30.114 84.9113 29.771C84.9063 29.4826 84.7845 29.2464 84.5459 29.0625C84.3073 28.8736 83.9394 28.7294 83.4422 28.63L81.4585 28.2347C80.3399 28.011 79.5072 27.6232 78.9603 27.0714C78.4184 26.5195 78.1475 25.8161 78.1475 24.9609C78.1475 24.2251 78.3463 23.5913 78.7441 23.0593C79.1468 22.5273 79.711 22.1172 80.4369 21.8288C81.1677 21.5405 82.0228 21.3963 83.0022 21.3963C84.449 21.3963 85.5874 21.7021 86.4177 22.3136C87.2529 22.9251 87.7401 23.7578 87.8794 24.8118ZM93.0194 29.7038L93.0268 25.8931H93.4892L97.1582 21.5455H100.805L95.8755 27.3026H95.1223L93.0194 29.7038ZM90.1408 33V17.7273H93.3176V33H90.1408ZM97.2999 33L93.9292 28.011L96.0471 25.7663L101.021 33H97.2999Z" fill="white"/>
<path d="M119.5 18V33" stroke="white" stroke-width="2" stroke-linecap="round"/>
<path d="M127 25.6416L112 25.6416" stroke="white" stroke-width="2" stroke-linecap="round"/>
<rect x="0.5" y="0.5" width="136" height="50" rx="9.5" stroke="#2A3647"/>
</svg>
