<svg width="32" height="33" viewBox="0 0 32 33" fill="none" xmlns="http://www.w3.org/2000/svg">
<rect y="0.5" width="32" height="32" rx="10" fill="white"/>
<g clip-path="url(#clip0_27928_3340)">
<path d="M16.0003 15.2548C16.1997 15.2544 16.394 15.3163 16.5545 15.4314L24.123 20.8653C24.2215 20.9361 24.3046 21.025 24.3678 21.127C24.4309 21.2291 24.4727 21.3422 24.4909 21.4599C24.5276 21.6977 24.4656 21.9399 24.3186 22.1333C24.1716 22.3266 23.9516 22.4553 23.7071 22.4909C23.4625 22.5266 23.2134 22.4664 23.0145 22.3234L16.0003 17.2925L8.98602 22.3234C8.88754 22.3942 8.7757 22.4454 8.65687 22.4742C8.53803 22.5029 8.41455 22.5086 8.29345 22.4909C8.17235 22.4733 8.05602 22.4326 7.95109 22.3712C7.84616 22.3099 7.75469 22.229 7.68191 22.1333C7.60912 22.0375 7.55644 21.9288 7.52688 21.8132C7.49732 21.6977 7.49146 21.5776 7.50962 21.4599C7.52779 21.3422 7.56963 21.2291 7.63275 21.127C7.69588 21.025 7.77905 20.9361 7.87752 20.8653L15.446 15.4314C15.6066 15.3163 15.8008 15.2544 16.0003 15.2548Z" fill="#FF3D00"/>
<path d="M16 10.4999C16.1994 10.4995 16.3937 10.5614 16.5543 10.6765L24.1228 16.1104C24.3216 16.2534 24.454 16.4672 24.4907 16.705C24.5273 16.9428 24.4654 17.185 24.3184 17.3784C24.1714 17.5717 23.9514 17.7004 23.7068 17.7361C23.4623 17.7717 23.2131 17.7115 23.0143 17.5686L16 12.5376L8.98577 17.5686C8.78689 17.7115 8.53777 17.7717 8.2932 17.7361C8.04863 17.7004 7.82866 17.5717 7.68166 17.3784C7.53467 17.185 7.47269 16.9428 7.50938 16.705C7.54606 16.4672 7.6784 16.2534 7.87728 16.1104L15.4458 10.6765C15.6063 10.5614 15.8006 10.4995 16 10.4999Z" fill="#FF3D00"/>
</g>
<defs>
<clipPath id="clip0_27928_3340">
<rect width="17" height="12" fill="white" transform="translate(24.5 22.5) rotate(-180)"/>
</clipPath>
</defs>
</svg>
