<svg width="32" height="27" viewBox="0 0 32 27" fill="none" xmlns="http://www.w3.org/2000/svg">
<rect y="0.333252" width="32" height="26.3333" rx="10" fill="white"/>
<g clip-path="url(#clip0_27928_3388)">
<path d="M23.5685 16.6666L8.43151 16.6666C8.18446 16.6666 7.94752 16.5677 7.77283 16.3918C7.59814 16.2158 7.5 15.9772 7.5 15.7283C7.5 15.4795 7.59814 15.2408 7.77283 15.0649C7.94752 14.8889 8.18446 14.79 8.43151 14.79L23.5685 14.79C23.8155 14.79 24.0525 14.8889 24.2272 15.0649C24.4019 15.2408 24.5 15.4795 24.5 15.7283C24.5 15.9772 24.4019 16.2158 24.2272 16.3918C24.0525 16.5677 23.8155 16.6666 23.5685 16.6666Z" fill="#FFA800"/>
<path d="M23.5685 12.2098L8.43151 12.2098C8.18446 12.2098 7.94752 12.1109 7.77283 11.935C7.59814 11.759 7.5 11.5204 7.5 11.2715C7.5 11.0227 7.59814 10.784 7.77283 10.6081C7.94752 10.4321 8.18446 10.3333 8.43151 10.3333L23.5685 10.3333C23.8155 10.3333 24.0525 10.4321 24.2272 10.6081C24.4019 10.784 24.5 11.0227 24.5 11.2715C24.5 11.5204 24.4019 11.759 24.2272 11.935C24.0525 12.1109 23.8155 12.2098 23.5685 12.2098Z" fill="#FFA800"/>
</g>
<defs>
<clipPath id="clip0_27928_3388">
<rect width="17" height="6.33333" fill="white" transform="translate(7.5 10.3333)"/>
</clipPath>
</defs>
</svg>
